<?xml version="1.0" encoding="UTF-8"?>
<svg id="Layer_2" data-name="Layer 2" xmlns="http://www.w3.org/2000/svg" viewBox="0 0 126.13 111.02">
  <defs>
    <style>
      .cls-1 {
        fill: #8f3dce;
      }
    </style>
  </defs>
  <g id="Layer_1-2" data-name="Layer 1">
    <g>
      <path class="cls-1" d="M.73,51.84V0H13.25l5.26,15.7c.19,.53,.33,1.08,.43,1.66,.1,.58,.19,1.1,.29,1.58,.05,.53,.1,1.06,.14,1.58h.58c.05-.53,.12-1.06,.22-1.58,.1-.48,.19-1.01,.29-1.58,.1-.58,.22-1.13,.36-1.66L25.49,0h12.67V51.84h-9.43V20.16c0-1.34,.06-2.69,.18-4.03,.12-1.34,.25-2.57,.4-3.67,.14-1.34,.31-2.62,.5-3.82h-.86c-.24,1.15-.46,2.28-.65,3.38-.24,.96-.46,1.96-.65,2.99-.19,1.03-.41,1.91-.65,2.63l-3.24,11.52H15.27l-3.6-11.52c-.24-.72-.46-1.58-.65-2.59-.19-1.01-.36-1.99-.5-2.95-.19-1.1-.38-2.26-.58-3.46h-.94c.19,1.2,.38,2.47,.58,3.82,.14,1.1,.28,2.33,.4,3.67,.12,1.34,.18,2.69,.18,4.03v31.68H.73Z"/>
      <path class="cls-1" d="M0,62.78H10.18l8.11,34.77c.18,.67,.32,1.4,.44,2.18,.11,.78,.21,1.51,.3,2.18,.09,.8,.18,1.61,.27,2.41h.4c.09-.8,.2-1.61,.33-2.41,.09-.67,.2-1.4,.33-2.18,.13-.78,.27-1.51,.4-2.18l7.97-34.77h10.12l-12.86,48.24H12.6L0,62.78Z"/>
      <g>
        <path class="cls-1" d="M53.12,83.59V31.75h32.76v9.36h-21.96v11.23h19.44v9.36h-19.44v12.53h21.96v9.36H53.12Z"/>
        <path class="cls-1" d="M90.92,83.59V31.75h17.06c2.74,0,5.22,.4,7.45,1.19,2.23,.79,4.14,1.93,5.72,3.42,1.58,1.49,2.81,3.26,3.67,5.33,.86,2.06,1.3,4.37,1.3,6.91v18.07c0,2.54-.43,4.86-1.3,6.95-.86,2.09-2.09,3.86-3.67,5.33-1.58,1.46-3.49,2.6-5.72,3.42-2.23,.82-4.72,1.22-7.45,1.22h-17.06Zm17.06-10.08c2.21,0,3.98-.62,5.33-1.87,1.34-1.25,2.02-2.9,2.02-4.97v-18.07c0-2.02-.67-3.65-2.02-4.9-1.34-1.25-3.12-1.87-5.33-1.87h-6.26v31.68h6.26Z"/>
      </g>
    </g>
  </g>
</svg>