<?xml version="1.0" encoding="UTF-8"?>
<svg id="Layer_2" data-name="Layer 2" xmlns="http://www.w3.org/2000/svg" viewBox="0 0 323.66 196.43">
  <defs>
    <style>
      .cls-1 {
        fill: #fff;
      }

      .cls-2 {
        fill: #662d91;
      }

      .cls-3 {
        fill: #662f90;
      }

      .cls-4 {
        fill: none;
        stroke: #662d91;
        stroke-miterlimit: 10;
      }

      .cls-5 {
        isolation: isolate;
      }
    </style>
  </defs>
  <g id="Layer_1-2" data-name="Layer 1">
    <g>
      <g class="cls-5">
        <polygon class="cls-2" points="310.63 153.41 299.23 147.21 311.25 145.52 322.64 151.72 310.63 153.41"/>
        <polygon class="cls-1" points="310.63 153.41 299.23 147.21 299.25 137.99 310.64 144.19 310.63 153.41"/>
        <polygon class="cls-2" points="309.74 154.5 298.34 148.3 298.36 139.07 309.75 145.27 309.74 154.5"/>
        <polygon class="cls-2" points="308.93 144.43 297.53 138.23 299.25 137.99 310.64 144.19 308.93 144.43"/>
        <polygon class="cls-2" points="308.87 144.84 297.47 138.64 297.53 138.23 308.93 144.43 308.87 144.84"/>
        <polygon class="cls-1" points="310.22 133.78 298.82 127.58 298.84 115.1 310.24 121.29 310.22 133.78"/>
        <polygon class="cls-2" points="309.33 133.9 297.93 127.7 297.95 115.22 309.35 121.42 309.33 133.9"/>
        <path class="cls-2" d="M287.75,154.95l-11.4-6.2c.66,.36,1.36,.66,2.09,.9,2.04,.67,4.33,.83,6.81,.49,3.39-.48,6.19-1.74,8.33-3.76,2.13-2,3.44-4.61,3.89-7.73l11.4,6.2c-.45,3.12-1.76,5.73-3.89,7.73-2.13,2.02-4.94,3.29-8.33,3.76-2.48,.35-4.77,.19-6.81-.49-.73-.24-1.43-.54-2.09-.9Z"/>
        <path class="cls-1" d="M296.18,143.37l-11.4-6.2c1.37,.75,3.09,.98,5.12,.69,2.78-.39,4.98-1.56,6.55-3.46,1.57-1.91,2.36-4.2,2.37-6.82l11.4,6.2c0,2.62-.8,4.91-2.37,6.82-1.57,1.91-3.77,3.07-6.55,3.46-2.03,.29-3.75,.05-5.12-.69Z"/>
        <path class="cls-2" d="M296.65,142.49l-11.4-6.2c1.23,.67,2.79,.88,4.65,.62,2.54-.36,4.53-1.4,5.92-3.1,1.39-1.7,2.1-3.75,2.1-6.1l11.4,6.2c0,2.35-.71,4.4-2.1,6.1-1.4,1.7-3.38,2.74-5.92,3.1-1.86,.26-3.42,.05-4.65-.62Z"/>
        <path class="cls-1" d="M298.84,115.1c0-2.75-.82-4.87-2.44-6.3,3.8,2.07,7.6,4.13,11.4,6.2,1.62,1.43,2.44,3.55,2.44,6.3-3.42-1.86-7.98-4.34-11.4-6.2Z"/>
        <polygon class="cls-1" points="308.99 110.9 297.6 104.7 299.33 104.45 310.73 110.65 308.99 110.9"/>
        <polygon class="cls-2" points="308.99 110.9 297.6 104.7 297.53 104.31 308.93 110.51 308.99 110.9"/>
        <path class="cls-2" d="M294.75,108.85l11.4,6.2c.37,.2,.72,.45,1.05,.73,1.44,1.27,2.16,3.16,2.16,5.64l-11.4-6.2c0-2.48-.72-4.38-2.16-5.64-.32-.28-.67-.52-1.05-.73Z"/>
        <path class="cls-1" d="M296.4,108.79c-.37-.32-.76-.6-1.18-.82l11.4,6.2c.42,.23,.82,.5,1.18,.82-1.9-1.03-3.8-2.07-5.7-3.1-.22-.12-.52-.28-.75-.41-.97-.53-1.95-1.06-2.92-1.59-.41-.22-.96-.52-1.37-.75-.2-.11-.47-.23-.65-.36Z"/>
        <polygon class="cls-1" points="310.73 110.65 299.33 104.45 299.13 100.68 310.53 106.88 310.73 110.65"/>
        <polygon class="cls-2" points="309.75 109.83 298.35 103.63 298.25 100.89 309.65 107.09 309.75 109.83"/>
        <polygon class="cls-2" points="322.64 151.72 311.25 145.52 311.38 76.36 322.77 82.56 322.64 151.72"/>
        <path class="cls-2" d="M296.18,143.37l-11.4-6.2c-.51-.28-.97-.63-1.39-1.04-1.52-1.53-2.29-3.73-2.29-6.53l11.4,6.2c0,2.8,.77,5,2.29,6.53,.42,.42,.88,.77,1.39,1.04Z"/>
        <polygon class="cls-1" points="310.31 84.31 298.91 78.11 311.38 76.36 322.77 82.56 310.31 84.31"/>
        <polygon class="cls-1" points="310.28 101.12 298.88 94.92 298.91 78.11 310.31 84.31 310.28 101.12"/>
        <polygon class="cls-2" points="309.39 101.24 297.99 95.04 298.02 77.27 309.42 83.47 309.39 101.24"/>
        <path class="cls-1" d="M310.53,106.88l-11.4-6.2c-.11-.92-.19-1.9-.21-2.95-.03-1.04-.04-1.98-.04-2.81l11.4,6.2c0,.83,.01,1.77,.04,2.81,.02,1.05,.1,2.03,.21,2.95Z"/>
        <path class="cls-2" d="M309.65,107.09l-11.4-6.2c-.12-.91-.2-1.93-.22-3-.03-1.06-.04-2.01-.04-2.85l11.4,6.2c0,.84,.01,1.79,.04,2.85,.02,1.08,.1,2.09,.22,3Z"/>
        <path class="cls-2" d="M293,97.36l11.4,6.2c.23,.12,.45,.26,.66,.4,2.12,1.4,3.42,3.61,3.86,6.54l-11.4-6.2c-.44-2.94-1.74-5.14-3.86-6.54-.21-.14-.44-.28-.66-.4Z"/>
        <polygon class="cls-2" points="292.51 135.79 281.11 129.59 281.13 117.58 292.53 123.78 292.51 135.79"/>
        <path class="cls-2" d="M295.22,107.97l11.4,6.2c-1.44-.78-3.2-1.04-5.26-.75-2.66,.37-4.81,1.5-6.4,3.34-1.61,1.85-2.42,4.21-2.42,7.03l-11.4-6.2c0-2.82,.82-5.18,2.42-7.03,1.6-1.84,3.75-2.96,6.4-3.34,2.06-.29,3.82-.03,5.26,.75Z"/>
        <path class="cls-1" d="M310.31,84.31l12.46-1.75-.13,69.17-12.02,1.69,.02-9.23-1.71,.24-.06,.42c-.45,3.12-1.76,5.73-3.89,7.73-2.13,2.02-4.94,3.29-8.33,3.76-2.48,.35-4.77,.19-6.81-.49-2.03-.67-3.81-1.81-5.26-3.37-1.46-1.56-2.6-3.57-3.37-5.98-.78-2.42-1.17-5.27-1.16-8.47l.02-12.97c0-3.07,.4-5.95,1.19-8.56,.78-2.6,1.92-4.89,3.38-6.84,1.47-1.94,3.25-3.54,5.29-4.75,2.04-1.22,4.34-2.01,6.81-2.36,3.39-.48,6.19,0,8.32,1.42,2.12,1.4,3.42,3.61,3.86,6.54l.06,.39,1.74-.24-.2-3.77c-.11-.92-.19-1.9-.21-2.95-.03-1.04-.04-1.98-.04-2.81l.03-16.81Zm-.09,49.47l.02-12.48c0-2.75-.82-4.87-2.44-6.3-1.62-1.41-3.78-1.95-6.44-1.58s-4.81,1.5-6.4,3.34c-1.61,1.85-2.42,4.21-2.42,7.03l-.02,12.01c0,2.8,.77,5,2.29,6.53,1.53,1.55,3.72,2.13,6.51,1.74s4.98-1.56,6.55-3.46c1.57-1.91,2.36-4.2,2.37-6.82h0Z"/>
        <polygon class="cls-1" points="280.05 138.02 268.65 131.82 268.68 118.85 280.07 125.05 280.05 138.02"/>
        <polygon class="cls-2" points="279.15 138.15 267.75 131.95 267.78 118.98 279.18 125.18 279.15 138.15"/>
        <path class="cls-1" d="M287.75,154.95l-11.4-6.2c-1.18-.64-2.24-1.47-3.17-2.47-1.46-1.56-2.6-3.57-3.37-5.98-.78-2.42-1.17-5.27-1.16-8.47l11.4,6.2c0,3.2,.38,6.05,1.16,8.47,.77,2.42,1.91,4.43,3.37,5.98,.93,1,2,1.83,3.17,2.47Z"/>
        <path class="cls-1" d="M293,97.36l11.4,6.2c-2.03-1.11-4.61-1.45-7.65-1.02-2.48,.35-4.77,1.14-6.81,2.36-2.04,1.21-3.82,2.82-5.29,4.75-1.46,1.94-2.6,4.24-3.38,6.84-.79,2.61-1.19,5.49-1.19,8.56l-11.4-6.2c0-3.07,.4-5.95,1.19-8.56,.78-2.6,1.92-4.89,3.38-6.84,1.47-1.94,3.25-3.54,5.29-4.75,2.04-1.22,4.34-2.01,6.81-2.36,3.05-.43,5.62-.08,7.65,1.02Z"/>
        <path class="cls-2" d="M293.49,96.49l11.4,6.2c-2.19-1.19-4.92-1.56-8.14-1.11-2.6,.36-5.01,1.2-7.16,2.48-2.16,1.28-4.04,2.98-5.6,5.03-1.55,2.05-2.76,4.48-3.58,7.2-.81,2.72-1.24,5.71-1.24,8.88l-11.4-6.2c0-3.17,.43-6.16,1.24-8.88,.82-2.73,2.03-5.15,3.58-7.2,1.56-2.05,3.44-3.75,5.6-5.03,2.15-1.29,4.56-2.12,7.16-2.48,3.22-.45,5.95-.08,8.14,1.11Z"/>
        <path class="cls-2" d="M309.42,83.47l14.24-2-.13,71.09-13.79,1.94,.02-9.23c-.62,3.22-2.03,5.9-4.24,8-2.3,2.17-5.28,3.53-8.86,4.03-2.6,.36-5.01,.19-7.16-.52-2.15-.71-4.03-1.91-5.58-3.56-1.54-1.64-2.74-3.76-3.55-6.29-.8-2.51-1.22-5.46-1.21-8.77l.02-12.97c0-3.17,.43-6.16,1.24-8.88,.82-2.73,2.03-5.15,3.58-7.2,1.56-2.05,3.44-3.75,5.6-5.03,2.15-1.29,4.56-2.12,7.16-2.48,3.58-.5,6.56,.01,8.85,1.54,2.21,1.47,3.6,3.73,4.14,6.71l-.1-2.74c-.12-.91-.2-1.93-.22-3-.03-1.06-.04-2.01-.04-2.85l.03-17.77Zm13.22,68.25l.13-69.17-12.46,1.75-.03,16.81c0,.83,.01,1.77,.04,2.81,.02,1.05,.1,2.03,.21,2.95l.2,3.77-1.74,.24-.06-.39c-.44-2.94-1.74-5.14-3.86-6.54-2.13-1.42-4.93-1.9-8.32-1.42-2.48,.35-4.77,1.14-6.81,2.36-2.04,1.21-3.82,2.82-5.29,4.75-1.46,1.94-2.6,4.24-3.38,6.84-.79,2.61-1.19,5.49-1.19,8.56l-.02,12.97c0,3.2,.38,6.05,1.16,8.47,.77,2.42,1.91,4.43,3.37,5.98,1.45,1.57,3.23,2.7,5.26,3.37,2.04,.67,4.33,.83,6.81,.49,3.39-.48,6.19-1.74,8.33-3.76,2.13-2,3.44-4.61,3.89-7.73l.06-.42,1.71-.24-.02,9.23,12.02-1.69h0Z"/>
        <path class="cls-2" d="M307.8,114.99c1.62,1.43,2.44,3.55,2.44,6.3l-.02,12.48c0,2.62-.8,4.91-2.37,6.82-1.57,1.91-3.77,3.07-6.55,3.46s-4.97-.19-6.51-1.74c-1.52-1.53-2.29-3.73-2.29-6.53l.02-12.01c0-2.82,.82-5.18,2.42-7.03,1.6-1.84,3.75-2.96,6.4-3.34s4.82,.16,6.44,1.58Zm1.53,18.91l.02-12.48c0-2.48-.72-4.38-2.16-5.64-1.46-1.26-3.42-1.74-5.84-1.4s-4.38,1.35-5.8,2.99c-1.41,1.63-2.14,3.75-2.14,6.29l-.02,12.01c0,2.55,.69,4.54,2.05,5.91,1.36,1.36,3.33,1.88,5.86,1.53s4.53-1.4,5.92-3.1c1.39-1.7,2.1-3.75,2.1-6.1h0Z"/>
        <polygon class="cls-2" points="309.42 83.47 298.02 77.27 312.27 75.27 323.66 81.47 309.42 83.47"/>
        <path class="cls-2" d="M287.26,155.81l-11.4-6.2c-1.24-.68-2.36-1.55-3.35-2.6-1.54-1.64-2.74-3.76-3.55-6.29-.8-2.51-1.22-5.46-1.21-8.77l11.4,6.2c0,3.3,.4,6.25,1.21,8.77,.81,2.53,2.01,4.65,3.55,6.29,.98,1.06,2.1,1.93,3.35,2.6Z"/>
      </g>
      <g class="cls-5">
        <polygon class="cls-2" points="270.44 136.01 259.05 129.81 259.06 120.69 270.46 126.89 270.44 136.01"/>
        <path class="cls-2" d="M234.83,161.11l-11.4-6.2c1.41,.77,2.98,1.35,4.7,1.74,2.7,.62,5.75,.7,9.06,.24,2.68-.38,5.22-1.1,7.58-2.15,2.35-1.05,4.48-2.38,6.34-3.95,1.84-1.56,3.44-3.39,4.74-5.4,1.18-1.83,2.05-3.81,2.59-5.89l11.4,6.2c-.54,2.08-1.41,4.05-2.59,5.89-1.3,2.02-2.9,3.84-4.74,5.4-1.86,1.58-3.99,2.9-6.34,3.95-2.36,1.06-4.9,1.78-7.58,2.15-3.31,.46-6.36,.38-9.06-.24-1.72-.39-3.29-.98-4.7-1.74Z"/>
        <polygon class="cls-1" points="257.62 147.41 246.23 141.21 258.44 139.5 269.84 145.69 257.62 147.41"/>
        <polygon class="cls-2" points="257.05 146.53 245.65 140.33 259.6 138.37 270.99 144.57 257.05 146.53"/>
        <polygon class="cls-2" points="256.93 146.84 245.53 140.64 245.65 140.33 257.05 146.53 256.93 146.84"/>
        <path class="cls-1" d="M243.01,144.79c1.52-.97,2.61-2.18,3.22-3.58l11.4,6.2c-.61,1.4-1.69,2.61-3.22,3.58-3.8-2.07-7.6-4.13-11.4-6.2Z"/>
        <path class="cls-1" d="M237.21,146.8c2.25-.32,4.2-.99,5.8-2.01,3.8,2.07,7.6,4.13,11.4,6.2-1.6,1.02-3.55,1.69-5.8,2.01-3.8-2.07-7.6-4.13-11.4-6.2Z"/>
        <polygon class="cls-2" points="238.93 140.44 227.53 134.24 259.05 129.81 270.44 136.01 238.93 140.44"/>
        <polygon class="cls-1" points="258.44 130.01 247.04 123.81 247.05 122.37 258.44 128.57 258.44 130.01"/>
        <polygon class="cls-2" points="257.55 129.17 246.16 122.98 246.16 122.5 257.55 128.7 257.55 129.17"/>
        <path class="cls-1" d="M231.43,146.04c1.53,.83,3.47,1.09,5.78,.76,3.8,2.07,7.6,4.13,11.4,6.2-2.31,.33-4.25,.07-5.78-.76-3.42-1.86-7.98-4.34-11.4-6.2Z"/>
        <path class="cls-2" d="M243.31,151.36l-11.4-6.2c1.39,.76,3.16,.98,5.3,.68s3.95-.93,5.43-1.87c1.44-.92,2.41-2.03,2.9-3.33l11.4,6.2c-.48,1.3-1.46,2.41-2.9,3.33-1.48,.94-3.3,1.57-5.43,1.87s-3.91,.07-5.3-.68Z"/>
        <path class="cls-2" d="M242.82,152.24l-11.4-6.2c-.5-.27-.97-.61-1.38-1.01l11.4,6.2c.42,.4,.88,.74,1.38,1.01Z"/>
        <path class="cls-2" d="M250.75,105.05l11.4,6.2c.84,.46,1.62,.98,2.35,1.56,1.9,1.53,3.38,3.52,4.41,5.89,1.04,2.37,1.56,5.12,1.55,8.18l-11.4-6.2c0-3.06-.52-5.81-1.55-8.18-1.03-2.37-2.51-4.36-4.41-5.89-.72-.59-1.51-1.11-2.35-1.56Z"/>
        <path class="cls-1" d="M243.12,113.96l11.4,6.2c.5,.27,.95,.6,1.36,.98,1.7,1.61,2.57,4.11,2.56,7.43l-11.4-6.2c0-3.32-.86-5.82-2.56-7.43-.41-.39-.87-.71-1.36-.98Z"/>
        <path class="cls-2" d="M242.64,114.84l11.4,6.2c.44,.24,.84,.53,1.21,.87,1.53,1.44,2.32,3.72,2.31,6.78l-11.4-6.2c0-3.06-.77-5.34-2.31-6.78-.36-.34-.77-.63-1.21-.87Z"/>
        <path class="cls-2" d="M241.44,151.22l-11.4-6.2c-1.67-1.61-2.52-4.11-2.52-7.43l11.4,6.2c0,3.32,.85,5.82,2.52,7.43Z"/>
        <polygon class="cls-2" points="238.92 143.8 227.53 137.6 227.53 134.24 238.93 140.44 238.92 143.8"/>
        <polygon class="cls-1" points="238.94 132.75 227.55 126.55 247.04 123.81 258.44 130.01 238.94 132.75"/>
        <polygon class="cls-2" points="239.83 131.66 228.44 125.47 246.16 122.98 257.55 129.17 239.83 131.66"/>
        <polygon class="cls-2" points="238.94 132.75 227.55 126.55 227.55 125.02 238.95 131.22 238.94 132.75"/>
        <path class="cls-2" d="M243.12,113.96l11.4,6.2c-1.56-.85-3.52-1.11-5.85-.79-3.01,.42-5.41,1.7-7.13,3.78-1.71,2.09-2.59,4.8-2.59,8.06l-11.4-6.2c0-3.26,.88-5.97,2.59-8.06,1.72-2.08,4.11-3.36,7.13-3.78,2.33-.33,4.29-.06,5.85,.79Z"/>
        <path class="cls-1" d="M270.44,136.01l-31.51,4.43v3.36c-.01,3.32,.84,5.82,2.51,7.43,1.68,1.61,4.09,2.21,7.16,1.78,2.25-.32,4.2-.99,5.8-2.01,1.52-.97,2.61-2.18,3.22-3.58l12.22-1.72c-.54,2.08-1.41,4.05-2.59,5.89-1.3,2.02-2.9,3.84-4.74,5.4-1.86,1.58-3.99,2.9-6.34,3.95-2.36,1.06-4.9,1.78-7.58,2.15-3.31,.46-6.36,.38-9.06-.24-2.69-.62-5.02-1.7-6.92-3.21-1.9-1.5-3.38-3.48-4.42-5.88-1.03-2.41-1.55-5.18-1.55-8.24l.02-12.58c0-3.12,.54-6.04,1.58-8.68,1.05-2.63,2.54-5.02,4.44-7.08,1.91-2.07,4.24-3.81,6.93-5.16,2.71-1.35,5.76-2.27,9.07-2.74s6.26-.37,8.94,.26c2.66,.62,4.97,1.72,6.87,3.26,1.9,1.53,3.38,3.52,4.41,5.89,1.04,2.37,1.56,5.12,1.55,8.18l-.02,9.12Zm-31.5-4.79v1.53s19.49-2.74,19.49-2.74v-1.44c0-3.32-.86-5.82-2.56-7.43-1.71-1.6-4.14-2.2-7.21-1.77s-5.41,1.7-7.13,3.78c-1.71,2.09-2.59,4.8-2.59,8.06h0Z"/>
        <polygon class="cls-1" points="226.64 145.52 215.25 139.33 215.27 126.75 226.67 132.95 226.64 145.52"/>
        <polygon class="cls-2" points="225.75 145.65 214.36 139.45 214.38 126.87 225.78 133.07 225.75 145.65"/>
        <path class="cls-1" d="M234.83,161.11l-11.4-6.2c-.79-.43-1.54-.92-2.22-1.47-1.9-1.5-3.38-3.48-4.42-5.88-1.03-2.41-1.55-5.18-1.55-8.24l11.4,6.2c0,3.06,.52,5.83,1.55,8.24,1.04,2.4,2.51,4.38,4.42,5.88,.69,.55,1.43,1.03,2.22,1.47Z"/>
        <path class="cls-1" d="M250.75,105.05l11.4,6.2c-1.37-.74-2.88-1.31-4.53-1.7-2.67-.63-5.68-.71-8.94-.26s-6.36,1.39-9.07,2.74c-2.69,1.35-5.02,3.08-6.93,5.16-1.9,2.07-3.4,4.45-4.44,7.08-1.04,2.64-1.57,5.55-1.58,8.68l-11.4-6.2c0-3.12,.54-6.04,1.58-8.68,1.05-2.63,2.54-5.02,4.44-7.08,1.91-2.07,4.24-3.81,6.93-5.16,2.71-1.35,5.76-2.27,9.07-2.74s6.26-.37,8.94,.26c1.65,.38,3.16,.95,4.53,1.7Z"/>
        <path class="cls-2" d="M271.33,136.84l-31.51,4.43v2.4c-.01,3.06,.75,5.34,2.27,6.79,1.5,1.45,3.7,1.98,6.52,1.58,2.12-.3,3.95-.93,5.43-1.87,1.44-.92,2.41-2.03,2.9-3.33l.12-.31,13.95-1.96-.14,.62c-.56,2.44-1.53,4.75-2.9,6.87-1.37,2.12-3.03,4.02-4.97,5.66-1.93,1.64-4.15,3.02-6.58,4.11-2.44,1.09-5.07,1.84-7.83,2.22-3.41,.48-6.56,.39-9.35-.25-2.8-.64-5.23-1.77-7.22-3.34-2-1.59-3.56-3.67-4.64-6.19-1.08-2.53-1.63-5.42-1.63-8.61l.02-12.58c0-3.26,.56-6.31,1.66-9.08,1.09-2.76,2.66-5.27,4.66-7.45,2.01-2.17,4.44-3.99,7.24-5.38,2.8-1.4,5.95-2.35,9.35-2.83s6.46-.38,9.23,.26c2.77,.66,5.19,1.8,7.17,3.41,2,1.62,3.56,3.7,4.64,6.19,1.08,2.48,1.63,5.37,1.63,8.56l-.02,10.08Zm-29.89,14.38c-1.67-1.61-2.52-4.11-2.52-7.43v-3.36s31.52-4.43,31.52-4.43l.02-9.12c0-3.06-.52-5.81-1.55-8.18-1.03-2.37-2.51-4.36-4.41-5.89-1.9-1.54-4.22-2.64-6.87-3.26-2.67-.63-5.68-.71-8.94-.26s-6.36,1.39-9.07,2.74c-2.69,1.35-5.02,3.08-6.93,5.16-1.9,2.07-3.4,4.45-4.44,7.08-1.04,2.64-1.57,5.55-1.58,8.68l-.02,12.58c0,3.06,.52,5.83,1.55,8.24,1.04,2.4,2.51,4.38,4.42,5.88,1.9,1.51,4.23,2.59,6.92,3.21,2.7,.62,5.75,.7,9.06,.24,2.68-.38,5.22-1.1,7.58-2.15,2.35-1.05,4.48-2.38,6.34-3.95,1.84-1.56,3.44-3.39,4.74-5.4,1.18-1.83,2.05-3.81,2.59-5.89l-12.22,1.72c-.61,1.4-1.69,2.61-3.22,3.58-1.6,1.02-3.55,1.69-5.8,2.01-3.08,.43-5.49-.16-7.16-1.78h0Z"/>
        <path class="cls-2" d="M258.44,128.57v1.44s-19.5,2.74-19.5,2.74v-1.53c0-3.26,.89-5.97,2.6-8.06,1.72-2.08,4.11-3.36,7.13-3.78s5.5,.17,7.21,1.77c1.7,1.61,2.57,4.11,2.56,7.43Zm-.89,.6v-.48c0-3.06-.77-5.34-2.31-6.78-1.53-1.44-3.74-1.97-6.58-1.57s-4.95,1.53-6.49,3.41c-1.54,1.88-2.33,4.35-2.34,7.34v.57s17.72-2.49,17.72-2.49h0Z"/>
        <path class="cls-2" d="M234.33,161.97l-11.4-6.2c-.82-.45-1.59-.95-2.3-1.52-2-1.59-3.56-3.67-4.64-6.19-1.08-2.53-1.63-5.42-1.63-8.61l11.4,6.2c0,3.19,.54,6.09,1.63,8.61,1.08,2.52,2.64,4.61,4.64,6.19,.71,.56,1.48,1.07,2.3,1.52Z"/>
        <path class="cls-2" d="M251.24,104.17l11.4,6.2c-1.43-.78-3.01-1.37-4.72-1.78-2.76-.64-5.87-.73-9.23-.26s-6.55,1.43-9.35,2.83c-2.81,1.4-5.24,3.22-7.24,5.38-2,2.17-3.56,4.68-4.66,7.45-1.09,2.76-1.65,5.82-1.66,9.08l-11.4-6.2c0-3.26,.56-6.31,1.66-9.08,1.09-2.76,2.66-5.27,4.66-7.45,2.01-2.17,4.44-3.99,7.24-5.38,2.8-1.4,5.95-2.35,9.35-2.83s6.46-.38,9.23,.26c1.72,.41,3.3,1,4.72,1.78Z"/>
      </g>
      <g class="cls-5">
        <polygon class="cls-2" points="202.97 168.54 191.57 162.34 207.92 108.18 219.32 114.38 202.97 168.54"/>
        <polygon class="cls-1" points="196.16 159.9 184.76 153.7 184.79 153.24 196.19 159.44 196.16 159.9"/>
        <polygon class="cls-1" points="194.79 160.09 183.39 153.89 184.76 153.7 196.16 159.9 194.79 160.09"/>
        <polygon class="cls-2" points="194.79 160.09 183.39 153.89 183.36 153.44 194.76 159.64 194.79 160.09"/>
        <path class="cls-1" d="M196.19,159.44l-11.4-6.2c.06-1.1,.16-2.27,.27-3.47l11.4,6.2c-.11,1.2-.21,2.37-.27,3.47Z"/>
        <polygon class="cls-2" points="187.59 170.7 176.19 164.5 191.57 162.34 202.97 168.54 187.59 170.7"/>
        <path class="cls-2" d="M195.48,156.99l-11.4-6.2c.03-.33,.07-.67,.1-1.01l11.4,6.2c-.03,.34-.07,.67-.1,1.01Z"/>
        <polygon class="cls-1" points="206.65 116.16 195.26 109.96 207.92 108.18 219.32 114.38 206.65 116.16"/>
        <polygon class="cls-1" points="197.79 148.95 186.39 142.75 195.26 109.96 206.65 116.16 197.79 148.95"/>
        <polygon class="cls-2" points="196.93 148.8 185.54 142.6 194.59 109.1 205.99 115.3 196.93 148.8"/>
        <path class="cls-1" d="M196.46,155.97l-11.4-6.2c.12-1.03,.3-2.17,.53-3.39,.23-1.24,.51-2.47,.8-3.63l11.4,6.2c-.29,1.16-.57,2.39-.8,3.63-.23,1.23-.41,2.37-.53,3.39Z"/>
        <path class="cls-2" d="M195.58,155.98l-11.4-6.2c.12-1.06,.3-2.23,.54-3.48,.24-1.26,.52-2.51,.82-3.7l11.4,6.2c-.3,1.19-.57,2.44-.82,3.7-.24,1.25-.42,2.42-.54,3.48Z"/>
        <path class="cls-2" d="M194.76,159.64l-11.4-6.2c-.05-1.08-.14-2.22-.26-3.4-.11-1-.28-2.1-.47-3.26-.21-1.16-.48-2.29-.83-3.37l11.4,6.2c.34,1.08,.62,2.21,.83,3.37,.2,1.16,.36,2.27,.47,3.26,.12,1.18,.2,2.32,.26,3.4Z"/>
        <polygon class="cls-2" points="205.99 115.3 194.59 109.1 209.16 107.05 220.56 113.25 205.99 115.3"/>
        <polygon class="cls-2" points="193.2 149.61 181.8 143.41 172.71 113.13 184.1 119.33 193.2 149.61"/>
        <polygon class="cls-1" points="187.59 170.7 176.19 164.5 159.86 114.94 171.25 121.14 187.59 170.7"/>
        <path class="cls-1" d="M219.32,114.38l-16.35,54.16-15.38,2.16-16.33-49.57,12.85-1.81,9.1,30.28c.34,1.08,.62,2.21,.83,3.37,.2,1.16,.36,2.27,.47,3.26,.12,1.18,.2,2.32,.26,3.4l.03,.45,1.37-.19,.02-.45c.06-1.1,.16-2.27,.27-3.47,.12-1.03,.3-2.17,.53-3.39,.23-1.24,.51-2.47,.8-3.63l8.86-32.79,12.66-1.78Z"/>
        <polygon class="cls-1" points="171.25 121.14 159.86 114.94 172.71 113.13 184.1 119.33 171.25 121.14"/>
        <polygon class="cls-2" points="186.95 171.75 175.55 165.55 158.61 114.15 170.01 120.35 186.95 171.75"/>
        <path class="cls-2" d="M205.99,115.3l14.57-2.05-16.95,56.16-16.66,2.34-16.94-51.4,14.75-2.07,9.3,30.92c.35,1.1,.64,2.28,.85,3.48,.21,1.18,.37,2.3,.49,3.32,.03,.33,.06,.67,.09,.99,.03-.33,.07-.67,.1-1.01,.12-1.06,.3-2.23,.54-3.48,.24-1.26,.52-2.51,.82-3.7l9.06-33.5Zm-3.02,53.25l16.35-54.16-12.66,1.78-8.86,32.79c-.29,1.16-.57,2.39-.8,3.63-.23,1.23-.41,2.37-.53,3.39-.11,1.2-.21,2.37-.27,3.47l-.02,.45-1.37,.19-.03-.45c-.05-1.08-.14-2.22-.26-3.4-.11-1-.28-2.1-.47-3.26-.21-1.16-.48-2.29-.83-3.37l-9.1-30.28-12.85,1.81,16.33,49.57,15.38-2.16h0Z"/>
        <polygon class="cls-2" points="170.01 120.35 158.61 114.15 173.36 112.08 184.75 118.28 170.01 120.35"/>
      </g>
      <g class="cls-5">
        <polygon class="cls-2" points="150.42 175.93 139.02 169.73 151.04 168.04 162.43 174.24 150.42 175.93"/>
        <polygon class="cls-1" points="150.42 175.93 139.02 169.73 139.04 160.5 150.44 166.7 150.42 175.93"/>
        <polygon class="cls-2" points="149.53 177.01 138.13 170.81 138.15 161.59 149.55 167.79 149.53 177.01"/>
        <polygon class="cls-2" points="148.72 166.94 137.33 160.74 139.04 160.5 150.44 166.7 148.72 166.94"/>
        <polygon class="cls-2" points="148.67 167.36 137.27 161.16 137.33 160.74 148.72 166.94 148.67 167.36"/>
        <polygon class="cls-1" points="150.02 156.29 138.62 150.09 138.64 137.61 150.04 143.81 150.02 156.29"/>
        <polygon class="cls-2" points="149.12 156.42 137.72 150.22 137.74 137.74 149.14 143.94 149.12 156.42"/>
        <path class="cls-2" d="M127.55,177.46l-11.4-6.2c.66,.36,1.36,.66,2.09,.9,2.04,.67,4.32,.84,6.81,.49,3.38-.48,6.19-1.74,8.33-3.76,2.12-2,3.43-4.6,3.89-7.73l11.4,6.2c-.46,3.12-1.77,5.73-3.89,7.73-2.14,2.02-4.95,3.29-8.33,3.76-2.48,.35-4.77,.19-6.81-.49-.73-.24-1.43-.54-2.09-.9Z"/>
        <path class="cls-1" d="M135.98,165.89l-11.4-6.2c1.37,.75,3.09,.98,5.11,.69,2.78-.39,4.98-1.56,6.56-3.46,1.57-1.91,2.36-4.2,2.37-6.82l11.4,6.2c0,2.62-.8,4.91-2.37,6.82-1.57,1.91-3.78,3.07-6.56,3.46-2.03,.28-3.74,.05-5.11-.69Z"/>
        <path class="cls-2" d="M136.45,165l-11.4-6.2c1.23,.67,2.79,.88,4.64,.62,2.54-.36,4.53-1.4,5.92-3.1,1.39-1.7,2.1-3.75,2.1-6.1l11.4,6.2c0,2.35-.71,4.4-2.1,6.1-1.4,1.7-3.38,2.74-5.92,3.1-1.85,.26-3.41,.05-4.64-.62Z"/>
        <path class="cls-1" d="M138.64,137.61c0-2.75-.82-4.87-2.45-6.3,3.8,2.07,7.6,4.13,11.4,6.2,1.63,1.43,2.45,3.55,2.45,6.3-3.42-1.86-7.98-4.34-11.4-6.2Z"/>
        <polygon class="cls-1" points="148.78 133.41 137.39 127.21 139.13 126.97 150.53 133.17 148.78 133.41"/>
        <polygon class="cls-2" points="148.78 133.41 137.39 127.21 137.33 126.83 148.73 133.02 148.78 133.41"/>
        <path class="cls-2" d="M134.54,131.36l11.4,6.2c.37,.2,.72,.45,1.05,.73,1.44,1.27,2.16,3.16,2.16,5.64l-11.4-6.2c0-2.48-.72-4.38-2.16-5.64-.32-.28-.67-.53-1.05-.73Z"/>
        <path class="cls-1" d="M136.2,131.31c-.37-.32-.76-.6-1.18-.83l11.4,6.2c.42,.23,.82,.51,1.18,.83-1.9-1.03-3.8-2.07-5.7-3.1-.22-.12-.52-.28-.75-.41-.74-.4-1.47-.8-2.21-1.2-.7-.38-1.39-.76-2.09-1.14-.2-.11-.47-.23-.65-.36Z"/>
        <polygon class="cls-1" points="150.53 133.17 139.13 126.97 138.92 123.2 150.32 129.4 150.53 133.17"/>
        <polygon class="cls-2" points="149.54 132.35 138.14 126.15 138.04 123.41 149.44 129.61 149.54 132.35"/>
        <polygon class="cls-2" points="162.43 174.24 151.04 168.04 151.17 98.87 162.56 105.07 162.43 174.24"/>
        <path class="cls-2" d="M135.98,165.89l-11.4-6.2c-.51-.28-.97-.63-1.39-1.05-1.53-1.53-2.3-3.73-2.29-6.53l11.4,6.2c0,2.8,.77,5,2.29,6.53,.41,.42,.88,.77,1.39,1.05Z"/>
        <polygon class="cls-1" points="150.11 106.82 138.71 100.62 151.17 98.87 162.56 105.07 150.11 106.82"/>
        <polygon class="cls-1" points="150.08 123.63 138.68 117.43 138.71 100.62 150.11 106.82 150.08 123.63"/>
        <polygon class="cls-2" points="149.18 123.76 137.78 117.56 137.82 99.79 149.21 105.99 149.18 123.76"/>
        <path class="cls-1" d="M150.32,129.4l-11.4-6.2c-.11-.92-.18-1.9-.21-2.95-.03-1.04-.04-1.06-.04-1.89l11.15,5.92c0,.83,.25,1.13,.28,2.17,.03,1.05,.1,2.03,.21,2.95Z"/>
        <path class="cls-2" d="M149.44,129.61l-11.4-6.2c-.12-.91-.19-1.93-.22-3-.03-1.06-.04-2.01-.04-2.85l11.4,6.2c0,.84,.01,1.79,.04,2.85,.03,1.08,.1,2.09,.22,3Z"/>
        <path class="cls-2" d="M132.81,119.89l11.4,6.2c.22,.12,.44,.25,.66,.39,2.11,1.41,3.41,3.61,3.86,6.54l-11.4-6.2c-.45-2.94-1.75-5.14-3.86-6.54-.21-.14-.43-.27-.66-.39Z"/>
        <polygon class="cls-2" points="132.3 158.31 120.9 152.11 120.92 140.1 132.32 146.3 132.3 158.31"/>
        <path class="cls-2" d="M135.01,130.48l11.4,6.2c-1.44-.78-3.2-1.04-5.26-.75-2.65,.37-4.81,1.5-6.4,3.34-1.6,1.85-2.42,4.21-2.42,7.03l-11.4-6.2c0-2.82,.83-5.18,2.42-7.03,1.6-1.84,3.75-2.97,6.4-3.34,2.06-.29,3.82-.04,5.26,.75Z"/>
        <path class="cls-2" d="M147.59,137.51c1.63,1.43,2.45,3.55,2.45,6.3l-.02,12.48c0,2.62-.8,4.91-2.37,6.82-1.57,1.91-3.78,3.07-6.56,3.46s-4.97-.19-6.5-1.74c-1.53-1.53-2.3-3.73-2.29-6.53l.02-12.01c0-2.82,.83-5.18,2.42-7.03,1.6-1.84,3.75-2.97,6.4-3.34s4.83,.16,6.44,1.58Zm1.53,18.91l.02-12.48c0-2.48-.72-4.38-2.16-5.64-1.45-1.27-3.41-1.74-5.84-1.4s-4.37,1.35-5.8,2.99c-1.41,1.63-2.13,3.75-2.13,6.29l-.02,12.01c0,2.55,.68,4.54,2.05,5.91,1.35,1.37,3.33,1.88,5.85,1.53s4.53-1.4,5.92-3.1c1.39-1.7,2.1-3.75,2.1-6.1h0Z"/>
        <polygon class="cls-1" points="119.84 160.54 108.44 154.34 108.47 141.37 119.86 147.57 119.84 160.54"/>
        <polygon class="cls-2" points="118.95 160.66 107.55 154.46 107.58 141.49 118.97 147.69 118.95 160.66"/>
        <path class="cls-1" d="M127.55,177.46l-11.4-6.2c-1.18-.64-2.24-1.47-3.18-2.47-1.46-1.56-2.6-3.57-3.37-5.98-.78-2.42-1.17-5.27-1.16-8.47l11.4,6.2c0,3.2,.38,6.05,1.16,8.47,.77,2.42,1.91,4.43,3.37,5.98,.94,1,2,1.83,3.18,2.47Z"/>
        <polygon class="cls-2" points="149.21 105.99 137.82 99.79 152.06 97.79 163.45 103.99 149.21 105.99"/>
        <path class="cls-2" d="M127.06,178.33l-11.4-6.2c-1.24-.68-2.37-1.55-3.36-2.61-1.54-1.64-2.73-3.77-3.54-6.3-.81-2.51-1.22-5.46-1.21-8.77l11.4,6.2c0,3.3,.4,6.25,1.21,8.77,.81,2.53,2,4.65,3.54,6.3,.99,1.06,2.11,1.93,3.36,2.61Z"/>
        <path class="cls-1" d="M132.81,119.89l11.4,6.2c-2.04-1.11-4.62-1.46-7.66-1.03-2.48,.35-4.78,1.14-6.82,2.36-2.04,1.21-3.81,2.82-5.28,4.75-1.47,1.94-2.61,4.24-3.39,6.84-.79,2.61-1.19,5.49-1.19,8.56l-11.4-6.2c0-3.07,.4-5.95,1.19-8.56,.78-2.6,1.92-4.89,3.39-6.84,1.47-1.94,3.24-3.54,5.28-4.75,2.04-1.22,4.34-2.01,6.82-2.36,3.05-.43,5.62-.08,7.66,1.03Z"/>
        <path class="cls-2" d="M133.27,119l11.4,6.2c-2.18-1.19-4.91-1.55-8.12-1.1-2.6,.37-5.02,1.2-7.16,2.48-2.16,1.28-4.04,2.98-5.59,5.03-1.56,2.05-2.76,4.48-3.58,7.2-.82,2.72-1.24,5.71-1.24,8.88l-11.4-6.2c0-3.17,.42-6.16,1.24-8.88,.82-2.73,2.02-5.15,3.58-7.2,1.55-2.05,3.43-3.75,5.59-5.03,2.15-1.29,4.56-2.12,7.16-2.48,3.21-.45,5.94-.08,8.12,1.1Z"/>
        <path class="cls-2" d="M149.21,105.99l14.24-2-.13,71.09-13.79,1.94,.02-9.23c-.62,3.22-2.02,5.9-4.24,8-2.29,2.17-5.28,3.52-8.86,4.03-2.6,.37-5.01,.19-7.17-.52-2.15-.71-4.02-1.91-5.58-3.56-1.54-1.64-2.73-3.77-3.54-6.3-.81-2.51-1.22-5.46-1.21-8.77l.02-12.97c0-3.17,.42-6.16,1.24-8.88,.82-2.73,2.02-5.15,3.58-7.2,1.55-2.05,3.43-3.75,5.59-5.03,2.15-1.29,4.56-2.12,7.16-2.48,3.58-.5,6.56,.01,8.85,1.54,2.21,1.47,3.6,3.73,4.14,6.71l-.1-2.74c-.12-.91-.19-1.93-.22-3-.03-1.06-.04-2.01-.04-2.85l.03-17.77Zm13.22,68.25l.13-69.17-12.46,1.75-.03,16.81c0,.83,0,1.77,.03,2.81,.03,1.05,.1,2.03,.21,2.95l.21,3.77-1.75,.25-.06-.39c-.45-2.94-1.75-5.14-3.86-6.54-2.14-1.42-4.94-1.9-8.32-1.42-2.48,.35-4.78,1.14-6.82,2.36-2.04,1.21-3.81,2.82-5.28,4.75-1.47,1.94-2.61,4.24-3.39,6.84-.79,2.61-1.19,5.49-1.19,8.56l-.02,12.97c0,3.2,.38,6.05,1.16,8.47,.77,2.42,1.91,4.43,3.37,5.98,1.46,1.57,3.23,2.7,5.27,3.37,2.04,.67,4.32,.84,6.81,.49,3.38-.48,6.19-1.74,8.33-3.76,2.12-2,3.43-4.6,3.89-7.73l.06-.41,1.71-.24-.02,9.23,12.02-1.69h0Z"/>
        <path class="cls-1" d="M150.11,106.82l12.46-1.75-.13,69.17-12.02,1.69,.02-9.23-1.71,.24-.06,.41c-.46,3.12-1.77,5.73-3.89,7.73-2.14,2.02-4.95,3.29-8.33,3.76-2.48,.35-4.77,.19-6.81-.49-2.04-.67-3.81-1.81-5.27-3.37-1.46-1.56-2.6-3.57-3.37-5.98-.78-2.42-1.17-5.27-1.16-8.47l.02-12.97c0-3.07,.4-5.95,1.19-8.56,.78-2.6,1.92-4.89,3.39-6.84,1.47-1.94,3.24-3.54,5.28-4.75,2.04-1.22,4.34-2.01,6.82-2.36,3.38-.48,6.18,0,8.32,1.42,2.11,1.41,3.41,3.61,3.86,6.54l.06,.39,1.75-.25-.21-3.77c-.11-.92-.18-1.9-.21-2.95-.03-1.04-.04-1.98-.03-2.81l.03-16.81Zm-.09,49.47l.02-12.48c0-2.75-.82-4.87-2.45-6.3-1.62-1.42-3.78-1.95-6.44-1.58s-4.81,1.5-6.4,3.34c-1.6,1.85-2.42,4.21-2.42,7.03l-.02,12.01c0,2.8,.77,5,2.29,6.53,1.53,1.55,3.72,2.13,6.5,1.74s4.98-1.56,6.56-3.46c1.57-1.91,2.36-4.2,2.37-6.82h0Z"/>
      </g>
      <g class="cls-5">
        <polygon class="cls-2" points="110.23 158.52 98.84 152.32 98.85 143.2 110.25 149.4 110.23 158.52"/>
        <path class="cls-2" d="M74.62,183.62l-11.4-6.2c1.41,.77,2.98,1.35,4.7,1.74,2.7,.62,5.75,.7,9.06,.24,2.67-.37,5.22-1.1,7.58-2.15,2.34-1.05,4.47-2.37,6.33-3.95,1.85-1.57,3.45-3.39,4.75-5.4,1.18-1.83,2.05-3.81,2.58-5.89l11.4,6.2c-.53,2.08-1.4,4.05-2.58,5.89-1.3,2.02-2.9,3.84-4.75,5.4-1.86,1.58-3.99,2.9-6.33,3.95-2.36,1.06-4.91,1.78-7.58,2.15-3.32,.47-6.37,.38-9.06-.24-1.72-.39-3.29-.98-4.7-1.74Z"/>
        <polygon class="cls-1" points="97.42 169.93 86.02 163.73 98.23 162.01 109.63 168.21 97.42 169.93"/>
        <polygon class="cls-2" points="96.84 169.05 85.44 162.85 99.39 160.89 110.79 167.09 96.84 169.05"/>
        <polygon class="cls-2" points="96.73 169.36 85.33 163.16 85.44 162.85 96.84 169.05 96.73 169.36"/>
        <path class="cls-1" d="M82.8,167.31c1.53-.98,2.61-2.18,3.22-3.58l11.4,6.2c-.6,1.4-1.69,2.61-3.22,3.58-3.8-2.07-7.6-4.13-11.4-6.2Z"/>
        <path class="cls-1" d="M77.01,169.32c2.24-.32,4.2-.99,5.79-2.01,3.8,2.07,7.6,4.13,11.4,6.2-1.6,1.02-3.55,1.69-5.79,2.01-3.8-2.07-7.6-4.13-11.4-6.2Z"/>
        <polygon class="cls-2" points="78.73 162.95 67.33 156.75 98.84 152.32 110.23 158.52 78.73 162.95"/>
        <polygon class="cls-1" points="98.23 152.53 86.84 146.33 86.84 144.89 98.24 151.09 98.23 152.53"/>
        <polygon class="cls-2" points="97.35 151.69 85.95 145.49 85.95 145.02 97.35 151.22 97.35 151.69"/>
        <path class="cls-1" d="M71.23,168.56c1.53,.83,3.46,1.09,5.78,.76,3.8,2.07,7.6,4.13,11.4,6.2-2.32,.33-4.25,.07-5.78-.76-3.42-1.86-7.98-4.34-11.4-6.2Z"/>
        <path class="cls-2" d="M83.1,173.87l-11.4-6.2c1.39,.76,3.16,.98,5.31,.68s3.94-.93,5.43-1.87c1.43-.92,2.41-2.03,2.9-3.33l11.4,6.2c-.49,1.3-1.47,2.41-2.9,3.33-1.48,.94-3.31,1.57-5.43,1.87s-3.92,.07-5.31-.68Z"/>
        <path class="cls-2" d="M82.62,174.76l-11.4-6.2c-.51-.28-.97-.61-1.38-1.02l11.4,6.2c.42,.4,.88,.74,1.38,1.02Z"/>
        <path class="cls-2" d="M90.54,127.57l11.4,6.2c.84,.46,1.62,.98,2.35,1.56,1.9,1.53,3.38,3.52,4.42,5.89,1.03,2.37,1.55,5.12,1.55,8.18l-11.4-6.2c0-3.06-.52-5.81-1.55-8.18-1.04-2.37-2.52-4.36-4.42-5.89-.72-.59-1.51-1.11-2.35-1.56Z"/>
        <path class="cls-1" d="M82.91,136.48l11.4,6.2c.5,.27,.95,.6,1.36,.98,1.71,1.61,2.57,4.11,2.56,7.43l-11.4-6.2c0-3.32-.85-5.82-2.56-7.43-.41-.39-.87-.71-1.36-.98Z"/>
        <path class="cls-2" d="M82.44,137.36l11.4,6.2c.44,.24,.84,.53,1.21,.87,1.53,1.45,2.31,3.72,2.3,6.78l-11.4-6.2c0-3.06-.77-5.34-2.3-6.78-.36-.34-.77-.63-1.21-.87Z"/>
        <path class="cls-2" d="M81.24,173.74l-11.4-6.2c-1.68-1.61-2.52-4.11-2.52-7.43l11.4,6.2c0,3.32,.84,5.82,2.52,7.43Z"/>
        <polygon class="cls-2" points="78.72 166.31 67.33 160.11 67.33 156.75 78.73 162.95 78.72 166.31"/>
        <polygon class="cls-1" points="78.74 155.26 67.35 149.06 86.84 146.33 98.23 152.53 78.74 155.26"/>
        <polygon class="cls-2" points="79.63 154.18 68.24 147.98 85.95 145.49 97.35 151.69 79.63 154.18"/>
        <polygon class="cls-2" points="78.74 155.26 67.35 149.06 67.35 147.53 78.75 153.73 78.74 155.26"/>
        <path class="cls-2" d="M82.91,136.48l11.4,6.2c-1.56-.85-3.51-1.11-5.84-.79-3.02,.42-5.42,1.7-7.13,3.79-1.71,2.09-2.58,4.8-2.59,8.06l-11.4-6.2c0-3.26,.88-5.97,2.59-8.06,1.72-2.08,4.11-3.36,7.13-3.79,2.33-.33,4.28-.06,5.84,.79Z"/>
        <path class="cls-2" d="M98.24,151.09v1.44s-19.49,2.74-19.49,2.74v-1.53c0-3.26,.88-5.97,2.59-8.06,1.72-2.08,4.11-3.36,7.13-3.79s5.49,.17,7.2,1.77c1.71,1.61,2.57,4.11,2.56,7.43Zm-.89,.6v-.48c0-3.06-.77-5.34-2.3-6.78-1.54-1.44-3.75-1.97-6.58-1.57s-4.96,1.54-6.5,3.41c-1.54,1.88-2.32,4.35-2.33,7.34v.57s17.71-2.49,17.71-2.49h0Z"/>
        <polygon class="cls-1" points="66.43 168.04 55.04 161.84 55.06 149.26 66.46 155.46 66.43 168.04"/>
        <polygon class="cls-2" points="65.55 168.17 54.15 161.97 54.17 149.39 65.57 155.59 65.55 168.17"/>
        <path class="cls-1" d="M74.62,183.62l-11.4-6.2c-.79-.43-1.54-.92-2.22-1.47-1.9-1.5-3.38-3.48-4.41-5.88-1.04-2.4-1.56-5.17-1.55-8.24l11.4,6.2c0,3.06,.52,5.83,1.55,8.24,1.03,2.4,2.51,4.38,4.41,5.88,.69,.55,1.43,1.03,2.22,1.47Z"/>
        <path class="cls-2" d="M74.12,184.49l-11.4-6.2c-.82-.45-1.59-.95-2.3-1.52-2-1.59-3.56-3.67-4.64-6.19-1.08-2.53-1.63-5.42-1.63-8.61l11.4,6.2c0,3.19,.54,6.09,1.63,8.61,1.08,2.52,2.64,4.61,4.64,6.19,.71,.56,1.48,1.07,2.3,1.52Z"/>
        <path class="cls-1" d="M110.23,158.52l-31.5,4.43v3.36c-.01,3.32,.83,5.82,2.51,7.43,1.67,1.61,4.08,2.21,7.16,1.78,2.24-.32,4.2-.99,5.79-2.01,1.53-.98,2.61-2.18,3.22-3.58l12.22-1.72c-.53,2.08-1.4,4.05-2.58,5.89-1.3,2.02-2.9,3.84-4.75,5.4-1.86,1.58-3.99,2.9-6.33,3.95-2.36,1.06-4.91,1.78-7.58,2.15-3.32,.47-6.37,.38-9.06-.24-2.69-.62-5.02-1.7-6.92-3.21-1.9-1.5-3.38-3.48-4.41-5.88-1.04-2.4-1.56-5.17-1.55-8.24l.02-12.58c0-3.12,.54-6.04,1.58-8.68,1.05-2.63,2.54-5.02,4.44-7.08,1.91-2.07,4.24-3.81,6.93-5.16,2.71-1.35,5.76-2.27,9.08-2.74s6.26-.37,8.93,.26c2.66,.62,4.97,1.72,6.87,3.26,1.9,1.53,3.38,3.52,4.42,5.89,1.03,2.37,1.55,5.12,1.55,8.18l-.02,9.12Zm-31.49-4.79v1.53s19.49-2.74,19.49-2.74v-1.44c0-3.32-.85-5.82-2.56-7.43-1.71-1.6-4.14-2.2-7.2-1.77s-5.42,1.7-7.13,3.79c-1.71,2.09-2.58,4.8-2.59,8.06h0Z"/>
        <path class="cls-1" d="M90.54,127.57l11.4,6.2c-1.37-.74-2.88-1.31-4.53-1.7-2.67-.63-5.68-.71-8.93-.26s-6.37,1.39-9.08,2.74c-2.69,1.35-5.02,3.08-6.93,5.16-1.9,2.07-3.4,4.45-4.44,7.08-1.04,2.64-1.57,5.55-1.58,8.68l-11.4-6.2c0-3.12,.54-6.04,1.58-8.68,1.05-2.63,2.54-5.02,4.44-7.08,1.91-2.07,4.24-3.81,6.93-5.16,2.71-1.35,5.76-2.27,9.08-2.74s6.26-.37,8.93,.26c1.65,.38,3.16,.95,4.53,1.7Z"/>
        <path class="cls-2" d="M91.02,126.68l11.4,6.2c-1.42-.77-3-1.37-4.71-1.77-2.76-.64-5.87-.73-9.22-.26s-6.56,1.43-9.36,2.83c-2.81,1.4-5.24,3.22-7.23,5.38-2.01,2.17-3.57,4.69-4.67,7.45-1.09,2.76-1.65,5.82-1.66,9.08l-11.4-6.2c0-3.26,.56-6.31,1.66-9.08,1.09-2.76,2.66-5.27,4.67-7.45,2-2.17,4.43-3.98,7.23-5.38,2.8-1.4,5.95-2.35,9.36-2.83s6.46-.38,9.22,.26c1.72,.41,3.29,1,4.71,1.77Z"/>
        <path class="cls-2" d="M111.12,159.36l-31.5,4.43v2.4c-.01,3.06,.75,5.34,2.26,6.79,1.5,1.45,3.7,1.98,6.53,1.58,2.11-.3,3.94-.93,5.43-1.87,1.43-.92,2.41-2.03,2.9-3.33l.11-.31,13.95-1.96-.14,.62c-.55,2.44-1.52,4.75-2.9,6.87-1.37,2.12-3.03,4.02-4.97,5.66-1.93,1.64-4.15,3.02-6.58,4.11-2.44,1.09-5.06,1.84-7.82,2.22-3.41,.48-6.56,.39-9.35-.25-2.8-.64-5.23-1.77-7.22-3.34-2-1.59-3.56-3.67-4.64-6.19-1.08-2.53-1.63-5.42-1.63-8.61l.02-12.58c0-3.26,.56-6.31,1.66-9.08,1.09-2.76,2.66-5.27,4.67-7.45,2-2.17,4.43-3.98,7.23-5.38,2.8-1.4,5.95-2.35,9.36-2.83s6.46-.38,9.22,.26c2.78,.66,5.19,1.8,7.17,3.41,2,1.61,3.56,3.7,4.64,6.19,1.08,2.48,1.63,5.37,1.63,8.56l-.02,10.08Zm-29.88,14.38c-1.68-1.61-2.52-4.11-2.52-7.43v-3.36s31.51-4.43,31.51-4.43l.02-9.12c0-3.06-.52-5.81-1.55-8.18-1.04-2.37-2.52-4.36-4.42-5.89-1.9-1.54-4.22-2.64-6.87-3.26-2.67-.63-5.68-.71-8.93-.26s-6.37,1.39-9.08,2.74c-2.69,1.35-5.02,3.08-6.93,5.16-1.9,2.07-3.4,4.45-4.44,7.08-1.04,2.64-1.57,5.55-1.58,8.68l-.02,12.58c0,3.06,.52,5.83,1.55,8.24,1.03,2.4,2.51,4.38,4.41,5.88,1.9,1.51,4.23,2.59,6.92,3.21,2.7,.62,5.75,.7,9.06,.24,2.67-.37,5.22-1.1,7.58-2.15,2.34-1.05,4.47-2.37,6.33-3.95,1.85-1.57,3.45-3.39,4.75-5.4,1.18-1.83,2.05-3.81,2.58-5.89l-12.22,1.72c-.6,1.4-1.69,2.61-3.22,3.58-1.6,1.02-3.55,1.69-5.79,2.01-3.08,.43-5.49-.16-7.16-1.78h0Z"/>
      </g>
      <g class="cls-5">
        <polygon class="cls-2" points="47.71 190.36 36.31 184.16 46.37 182.75 57.77 188.95 47.71 190.36"/>
        <polygon class="cls-2" points="57.77 188.95 46.37 182.75 46.45 142.88 57.84 149.08 57.77 188.95"/>
        <polygon class="cls-2" points="30 192.85 18.6 186.65 28.66 185.24 40.06 191.44 30 192.85"/>
        <polygon class="cls-2" points="46.82 191.45 35.42 185.25 35.49 146.06 46.89 152.26 46.82 191.45"/>
        <path class="cls-1" d="M36.38,145.93c0-.92-.08-1.69-.22-2.33,3.8,2.07,7.6,4.13,11.4,6.2,.14,.64,.22,1.41,.22,2.33-3.42-1.86-7.98-4.34-11.4-6.2Z"/>
        <path class="cls-1" d="M36.01,143.03c3.8,2.07,7.6,4.13,11.4,6.2,.06,.18,.11,.37,.16,.58-3.8-2.07-7.6-4.13-11.4-6.2-.05-.21-.1-.4-.16-.58Z"/>
        <path class="cls-2" d="M41.92,131.85l11.4,6.2c.78,.43,1.48,1.03,2.1,1.83,1.62,2.07,2.44,5.17,2.43,9.21l-11.4-6.2c0-4.04-.81-7.14-2.43-9.21-.62-.79-1.31-1.4-2.1-1.83Z"/>
        <path class="cls-1" d="M36.01,143.03c-.34-1.04-.88-1.66-1.5-2l11.4,6.2c.62,.34,1.16,.95,1.5,1.99-2.83-1.54-5.66-3.08-8.49-4.62-.48-.26-.97-.53-1.45-.79-.19-.1-.38-.21-.57-.31-.11-.06-.26-.14-.37-.2s-.25-.13-.35-.19c-.05-.03-.13-.05-.17-.09Z"/>
        <path class="cls-2" d="M34.03,141.91l11.4,6.2c.99,.54,1.47,1.91,1.47,4.15l-11.4-6.2c0-2.23-.48-3.61-1.47-4.15Z"/>
        <path class="cls-1" d="M37.39,131.19c1.76-.25,3.26-.03,4.53,.66l11.4,6.2c-1.27-.69-2.77-.91-4.53-.66-3.42-1.86-7.98-4.34-11.4-6.2Z"/>
        <polygon class="cls-2" points="40.06 191.44 28.66 185.24 28.73 147.01 40.13 153.21 40.06 191.44"/>
        <polygon class="cls-1" points="40.92 147.14 29.52 140.94 29.54 140.48 40.94 146.68 40.92 147.14"/>
        <polygon class="cls-1" points="39.79 147.3 28.39 141.1 29.52 140.94 40.92 147.14 39.79 147.3"/>
        <path class="cls-2" d="M34.51,141.03l11.4,6.2c-.66-.36-1.42-.4-2.12-.3-1.35,.19-2.32,.88-2.89,2.05-.51,1.08-.77,2.47-.77,4.23l-11.4-6.2c0-1.76,.25-3.15,.77-4.23,.56-1.17,1.53-1.86,2.89-2.05,.7-.1,1.46-.06,2.12,.3Z"/>
        <polygon class="cls-2" points="39.79 147.3 28.39 141.1 28.31 140.74 39.71 146.94 39.79 147.3"/>
        <path class="cls-1" d="M40.94,146.68l-11.4-6.2c.12-2.57,.89-4.7,2.28-6.34,1.4-1.64,3.27-2.63,5.57-2.95l11.4,6.2c-2.3,.32-4.17,1.31-5.57,2.95-1.39,1.64-2.16,3.77-2.28,6.34Z"/>
        <polygon class="cls-2" points="12.29 195.34 .89 189.14 10.94 187.73 22.34 193.93 12.29 195.34"/>
        <path class="cls-2" d="M42.42,130.99l11.4,6.2c-1.42-.77-3.11-1.03-5.03-.76-2.54,.36-4.62,1.47-6.19,3.31-1.27,1.49-2.07,3.33-2.4,5.49l-11.4-6.2c.32-2.15,1.13-4,2.4-5.49,1.57-1.84,3.65-2.95,6.19-3.31,1.92-.27,3.61-.02,5.03,.76Z"/>
        <polygon class="cls-1" points="30 192.85 18.6 186.65 18.67 148.42 30.07 154.62 30 192.85"/>
        <polygon class="cls-2" points="29.11 193.94 17.71 187.74 17.78 148.54 29.18 154.74 29.11 193.94"/>
        <path class="cls-1" d="M18.67,148.42c0-1.18-.13-2.12-.36-2.84,3.8,2.07,7.6,4.13,11.4,6.2,.23,.73,.36,1.66,.36,2.84-3.42-1.86-7.98-4.34-11.4-6.2Z"/>
        <path class="cls-2" d="M16.32,144.4l11.4,6.2c.99,.54,1.47,1.91,1.47,4.15l-11.4-6.2c0-2.23-.48-3.61-1.47-4.15Z"/>
        <path class="cls-1" d="M18.29,145.51c3.8,2.07,7.6,4.13,11.4,6.2,0,.02,.01,.04,.02,.06-3.8-2.07-7.6-4.13-11.4-6.2,0-.02-.01-.04-.02-.06Z"/>
        <path class="cls-2" d="M24.16,134.37l11.4,6.2c.37,.2,.71,.44,1.04,.71,1.5,1.25,2.53,3.16,3.1,5.66l-11.4-6.2c-.57-2.5-1.61-4.41-3.1-5.66-.33-.28-.68-.51-1.04-.71Z"/>
        <path class="cls-1" d="M18.29,145.51c-.34-1.04-.88-1.66-1.5-2l11.4,6.2c.62,.34,1.16,.95,1.5,1.99-3.8-2.07-7.6-4.13-11.4-6.2Z"/>
        <path class="cls-1" d="M19.68,133.68c1.71-.24,3.21,0,4.49,.69l11.4,6.2c-1.28-.7-2.78-.93-4.49-.69-3.8-2.07-7.6-4.13-11.4-6.2,0,0,0,0,0,0Z"/>
        <polygon class="cls-2" points="22.34 193.93 10.94 187.73 11.02 149.5 22.41 155.7 22.34 193.93"/>
        <polygon class="cls-1" points="23.21 149.63 11.81 143.43 11.83 142.97 23.22 149.17 23.21 149.63"/>
        <path class="cls-2" d="M16.8,143.52l11.4,6.2c-.66-.36-1.42-.4-2.12-.3-1.35,.19-2.32,.88-2.89,2.05-.51,1.07-.77,2.47-.78,4.23l-11.4-6.2c0-1.76,.26-3.16,.78-4.23,.56-1.17,1.53-1.86,2.89-2.05,.7-.1,1.46-.06,2.12,.3Z"/>
        <polygon class="cls-1" points="21.45 149.88 10.05 143.68 11.81 143.43 23.21 149.63 21.45 149.88"/>
        <path class="cls-1" d="M19.68,133.68c.16,.03,.34,.19,.49,.27,2.72,1.48,5.44,2.96,8.17,4.44,.91,.5,1.83,.99,2.74,1.49-2.3,.32-4.17,1.31-5.57,2.95-1.39,1.64-2.16,3.77-2.28,6.34l-11.4-6.2c.12-2.57,.89-4.7,2.28-6.34,1.4-1.64,3.27-2.63,5.57-2.95Z"/>
        <path class="cls-2" d="M24.62,133.48l11.4,6.2c-1.42-.77-3.07-1.02-4.94-.76-2.54,.36-4.62,1.47-6.19,3.31-1.48,1.74-2.32,3.94-2.52,6.56l-11.4-6.2c.2-2.62,1.04-4.82,2.52-6.56,1.57-1.84,3.65-2.95,6.19-3.31,1.87-.26,3.53,0,4.94,.76Z"/>
        <polygon class="cls-2" points="21.45 149.88 10.05 143.68 10.06 135.99 21.46 142.19 21.45 149.88"/>
        <polygon class="cls-1" points="12.38 143.47 .99 137.27 10.06 135.99 21.46 142.19 12.38 143.47"/>
        <path class="cls-2" d="M26.08,149.42c-1.17,.16-2.05,.7-2.63,1.6l.76,.41c.41-.59,1.03-.93,1.87-1.05,1.96-.28,2.97,.96,3.09,3.75l.9,.49c0-4.76-2.17-5.46-3.99-5.2Zm30.05-10.23c-1.77-2.27-4.24-3.19-7.34-2.75-2.54,.36-4.62,1.47-6.19,3.31-1.27,1.49-2.07,3.33-2.4,5.49-.65-2.03-1.66-3.61-3-4.74-1.65-1.38-3.7-1.91-6.12-1.57-2.54,.36-4.62,1.47-6.19,3.31-1.48,1.74-2.32,3.94-2.52,6.56l-.02-7.68-10.85,1.53-.1,53.79,11.83-1.66v-5.59s-.88-.48-.88-.48v5.24s-10.06,1.41-10.06,1.41l.1-51.88,9.08-1.28v7.69s1.75-.25,1.75-.25l.02-.46c.12-2.57,.89-4.7,2.28-6.34,1.4-1.64,3.27-2.63,5.57-2.95,2.19-.31,4.05,.17,5.53,1.4,1.5,1.25,2.53,3.16,3.1,5.66l.08,.36,1.13-.16,.02-.46c.12-2.57,.89-4.7,2.28-6.34,1.4-1.64,3.27-2.63,5.57-2.95,2.85-.4,5.01,.41,6.63,2.48,1.62,2.07,2.44,5.17,2.43,9.21l-.07,39.87-10.06,1.41,.07-38.23c0-4.76-2.17-5.46-3.99-5.2-1.35,.19-2.32,.88-2.89,2.05-.51,1.08-.77,2.47-.77,4.23l-.07,38.23-10.06,1.41h0s-.89-.48-.89-.48v1.57s11.84-1.66,11.84-1.66l.07-39.19c0-1.58,.22-2.84,.66-3.75,.39-.83,1.08-1.3,2.1-1.44,2.1-.29,3.11,1.14,3.11,4.37l-.07,39.19,11.84-1.66,.08-40.83c0-4.25-.87-7.54-2.61-9.77Z"/>
        <path class="cls-1" d="M46.88,151.64c0,.2,.01,.4,.01,.62l-.07,37.62,.89,.48,.07-38.23-.9-.49Z"/>
        <path class="cls-1" d="M48.79,137.39c2.85-.4,5.01,.41,6.63,2.48,1.62,2.07,2.44,5.17,2.43,9.21l-.07,39.87-10.06,1.41,.07-38.23c0-4.76-2.17-5.46-3.99-5.2-1.35,.19-2.32,.88-2.89,2.05-.51,1.08-.77,2.47-.77,4.23l-.07,38.23-10.06,1.41,.07-38.23c0-4.76-2.17-5.46-3.99-5.2-1.35,.19-2.32,.88-2.89,2.05-.51,1.07-.77,2.47-.78,4.23l-.07,38.23-10.05,1.41,.1-51.88,9.08-1.28v7.69s1.75-.25,1.75-.25l.02-.46c.12-2.57,.89-4.7,2.28-6.34,1.4-1.64,3.27-2.63,5.57-2.95s4.05,.17,5.53,1.4c1.5,1.25,2.53,3.16,3.1,5.66l.08,.36,1.13-.16,.02-.46c.12-2.57,.89-4.7,2.28-6.34,1.4-1.64,3.27-2.63,5.57-2.95Z"/>
        <polygon class="cls-1" points="12.29 195.34 .89 189.14 .99 137.27 12.38 143.47 12.29 195.34"/>
        <polygon class="cls-2" points="11.5 142.63 .1 136.43 10.95 134.91 22.35 141.11 11.5 142.63"/>
        <polygon class="cls-2" points="11.4 196.43 0 190.23 .1 136.43 11.5 142.63 11.4 196.43"/>
      </g>
    </g>
    <path class="cls-2" d="M216.58,141.3c.08,.66,.07,1.32-.02,1.98-.07,.56,.33,1.4,.73,1.77s.88,.61,1.44,.69,1.13,0,1.59-.3c.58-.37,.9-.85,1.15-1.49,.31-.81,.44-1.72,.4-2.58-.06-1.25-.91-2.29-2.17-2.46s-2.33,.6-2.74,1.79c-.02,.07-.05,.13-.07,.2l.25-.6c-.1,.23-.22,.43-.36,.64l.39-.51c-.11,.14-.22,.27-.35,.39l4.18,1.1c-.26-1.12-.71-2.22-1.3-3.22-.54-.92-1.78-1.49-2.82-1.15-.41,.13-.78,.35-1.1,.64-.42,.39-.79,1.19-.73,1.77,.01,.06,.01,.11,0,.17l.09-.66-.03,.08,.25-.6-.04,.07,.39-.51s-.07,.09-.12,.12l4.18,2.43,.07-.42-4.57,.6c.25,.53,.8,1.03,1.3,1.3,.4,.21,.84,.35,1.26,.52l-.6-.25c.21,.09,.4,.21,.59,.35l-.51-.39c.71,.55,1.29,1.22,2.03,1.75,.67,.48,1.45,.73,2.11,1.22l-.51-.39c.39,.3,.75,.64,1.11,.98,.48,.45,1.11,.73,1.77,.73,.61,0,1.35-.27,1.77-.73,.89-.97,1.02-2.58,0-3.54-.63-.6-1.29-1.19-2.03-1.66-.59-.37-1.26-.6-1.81-1.02l.51,.39c-.44-.35-.81-.78-1.25-1.15-.33-.28-.68-.57-1.07-.78s-.83-.35-1.25-.52l.6,.25c-.13-.05-.24-.11-.36-.19l.51,.39c-.06-.05-.11-.1-.16-.16l.39,.51s-.06-.09-.07-.14c-.16-.35-.57-.71-.9-.9-.49-.28-1.04-.37-1.59-.3-.45,.06-.82,.21-1.18,.49-.39,.3-.81,.79-.9,1.3l-.07,.42c-.09,.58-.11,1.08,.13,1.63,.2,.48,.55,.95,1.02,1.2,.39,.21,.82,.32,1.26,.34,.7,.03,1.24-.33,1.77-.73,.32-.25,.53-.63,.68-1s.28-.8,.24-1.21l-4.66,1.26c.21,.36,.4,.73,.56,1.11l-.25-.6c.2,.49,.36,.99,.48,1.51,.19,.84,.93,1.52,1.75,1.75,.87,.24,1.78-.02,2.43-.64,.68-.65,1.12-1.44,1.43-2.32l-4.91-.66c.01,.27,0,.54-.03,.81l.09-.66c-.05,.38-.15,.75-.29,1.11l4.91,.66c.09-.66,.09-1.32,.02-1.98s-.23-1.26-.73-1.77c-.43-.43-1.15-.76-1.77-.73s-1.32,.24-1.77,.73c-.42,.46-.81,1.12-.73,1.77h0Z"/>
    <path class="cls-2" d="M273.62,132.55l-.17,1,4.18-1.1c-.08-.07-.15-.14-.22-.23l.39,.51c-.27-.36-.5-.74-.8-1.08-.28-.32-.64-.6-1.01-.8-.63-.34-1.27-.52-1.96-.63l-.66-.09c-.34-.01-.67,.06-.96,.22-.48,.2-.95,.55-1.2,1.02-.21,.39-.32,.82-.34,1.26-.01,.34,.06,.67,.22,.96,.1,.31,.27,.58,.52,.8,.67,.56,1.33,1.13,1.99,1.72,.32,.29,.64,.58,.95,.87,.29,.27,.59,.53,.84,.84l-.39-.51c.09,.12,.17,.25,.24,.39l-.25-.6c.04,.1,.07,.2,.09,.31l-.09-.66v.06c0,.34,.07,.67,.22,.96,.1,.31,.27,.58,.52,.8,.43,.43,1.15,.76,1.77,.73s1.32-.24,1.77-.73c.42-.46,.81-1.12,.73-1.77-.04-.3-.05-.63-.14-.92s-.21-.57-.35-.83c-.2-.36-.47-.68-.75-.98-.36-.38-.76-.72-1.14-1.08-.81-.73-1.63-1.45-2.46-2.15l-2.43,4.18c.4,.06,.8,.13,1.17,.28l-.6-.25c.15,.07,.29,.14,.43,.24l-.51-.39c.12,.09,.22,.19,.31,.31l-.39-.51c.32,.42,.57,.92,.98,1.26,.31,.31,.68,.52,1.1,.64,.44,.12,.89,.12,1.33,0,.42-.12,.79-.33,1.1-.64,.31-.31,.52-.68,.64-1.1l.17-1c.1-.33,.12-.66,.04-1-.02-.33-.11-.64-.3-.93-.3-.52-.9-1.01-1.49-1.15-.64-.15-1.36-.11-1.93,.25-.52,.33-1.04,.86-1.15,1.49h0Z"/>
    <path class="cls-2" d="M299.76,128.77c.02,.06,.04,.13,.04,.2l-.09-.66v.1c.03-.22,.06-.44,.09-.66,0,.07-.02,.13-.04,.2l3.08-1.75c-.45-.19-.9-.38-1.35-.57l-1.33,4.82c.13,.05,.25,.09,.38,.15l-.6-.25c.75,.32,1.43,.77,2.07,1.26l-.51-.39c1.59,1.23,3.04,2.74,4.89,3.58,.63,.28,1.23,.44,1.93,.25,.58-.16,1.21-.61,1.49-1.15,.31-.58,.46-1.28,.25-1.93-.19-.58-.57-1.23-1.15-1.49-.72-.32-1.37-.76-1.99-1.23l.51,.39c-.82-.63-1.58-1.32-2.4-1.96-1.12-.87-2.21-1.57-3.56-2.05-.58-.21-1.41-.05-1.93,.25s-1.01,.9-1.15,1.49c-.15,.64-.11,1.36,.25,1.93l.39,.51c.31,.31,.68,.52,1.1,.64,.45,.19,.9,.38,1.35,.57,.53,.22,1.46,.05,1.93-.25,.55-.36,.96-.85,1.15-1.49,.17-.6,.17-1.22,0-1.82-.35-1.26-1.78-2.16-3.08-1.75s-2.13,1.73-1.75,3.08h0Z"/>
    <path class="cls-2" d="M306.07,102.59c.13,.02,.25,.05,.37,.1l-.6-.25c.1,.05,.19,.1,.28,.16l-.51-.39,.05,.04,2.43-4.18c-.12-.03-.24-.07-.35-.12l.6,.25c-.57-.25-1.05-.65-1.57-.97-.62-.38-1.29-.67-1.93-.99-.6-.3-1.26-.44-1.93-.25-.58,.16-1.21,.61-1.49,1.15-.31,.58-.46,1.28-.25,1.93,.19,.6,.57,1.2,1.15,1.49,.71,.35,1.46,.67,2.12,1.11,.28,.18,.55,.38,.84,.56,.15,.09,.3,.18,.46,.25,.33,.15,.68,.31,1.03,.41l.66,.09c.34,.01,.67-.06,.96-.22,.21-.06,.4-.17,.55-.32,.27-.18,.49-.41,.64-.7,.21-.39,.32-.82,.34-1.26,.01-.34-.06-.67-.22-.96-.1-.31-.27-.58-.52-.8-.54-.42-1.09-.84-1.8-.94-.33-.1-.66-.12-1-.04-.33,.02-.64,.11-.93,.3-.52,.3-1.01,.9-1.15,1.49-.15,.64-.11,1.36,.25,1.93l.39,.51c.31,.31,.68,.52,1.1,.64h0Z"/>
    <path class="cls-2" d="M303.22,99.35c.1,.11,.22,.19,.34,.28,.3,.23,.48,.38,.9,.47,.21,.05,.5,.09,.71,.09,.47,.02,.9-.16,1.3-.36,1.4-.71,1.65-2.88,.51-3.93-.73-.66-1.54-1.27-2.42-1.72-.72-.36-1.5-.62-2.17-1.08l-1.93,4.57c.18,.03,.35,.08,.52,.14l-.6-.25c.13,.05,.24,.12,.36,.19,.54,.34,1.32,.42,1.93,.25s1.21-.61,1.49-1.15c.31-.58,.46-1.28,.25-1.93s-.58-1.14-1.15-1.49c-.44-.28-.96-.5-1.48-.59-.33-.1-.66-.12-1-.04-.33,.02-.64,.11-.93,.3l-.51,.39c-.24,.23-.42,.49-.52,.8-.21,.5-.3,1.1-.13,1.63,.21,.64,.59,1.12,1.15,1.49s1.2,.62,1.81,.91,1.19,.62,1.73,1.03l-.51-.39c.19,.15,.37,.3,.55,.46l.51-3.93-.04,.02,1.26-.34h-.05c.42,.11,.84,.22,1.26,.34l-.05-.02,.51,.39s-.06-.05-.08-.08c-.41-.46-1.17-.73-1.77-.73s-1.35,.27-1.77,.73-.76,1.1-.73,1.77l.09,.66c.12,.42,.33,.79,.64,1.1h0Z"/>
    <path class="cls-2" d="M193.41,147.49c.16,.17,.32,.33,.46,.51l-.39-.51c.05,.07,.1,.14,.13,.22l-.25-.6s.03,.09,.04,.14l-.09-.66s0,.05,0,.07c-.01,.34,.06,.67,.22,.96,.1,.31,.27,.58,.52,.8,.23,.24,.49,.42,.8,.52,.3,.16,.62,.23,.96,.22l.66-.09c.42-.12,.79-.33,1.1-.64l.39-.51c.23-.39,.34-.81,.34-1.26,0-.03,0-.05,0-.07l-.09-.66h0s0-.04,0-.05c0-.02-.01-.04-.02-.06-.04-.11-.1-.23-.14-.33s-.09-.21-.13-.32c-.02-.04-.04-.08-.07-.12-.01-.02-.03-.04-.04-.06-.14-.19-.28-.37-.43-.55-.14-.17-.29-.32-.44-.48-.23-.24-.49-.42-.8-.52-.3-.16-.62-.23-.96-.22-.34-.01-.67,.06-.96,.22-.31,.1-.58,.27-.8,.52l-.39,.51c-.23,.39-.34,.81-.34,1.26l.09,.66c.12,.42,.33,.79,.64,1.1h0Z"/>
    <path class="cls-2" d="M138.99,152.24c1.85,2.23,4.27,4.07,6.92,5.25,.63,.28,1.23,.44,1.93,.25,.58-.16,1.21-.61,1.49-1.15,.31-.58,.46-1.28,.25-1.93-.19-.58-.57-1.23-1.15-1.49-1.3-.58-2.53-1.32-3.65-2.19l.51,.39c-1.01-.79-1.93-1.68-2.75-2.67-.39-.47-1.19-.73-1.77-.73-.61,0-1.35,.27-1.77,.73s-.76,1.1-.73,1.77,.29,1.23,.73,1.77h0Z"/>
    <path class="cls-2" d="M115.11,160.61l.04,.05-.39-.51c.04,.06,.06,.11,.09,.17l-.25-.6c.02,.06,.03,.12,.04,.19l-.09-.66s0,.09,0,.13l3.16-2.41c-.17-.06-.35-.13-.51-.2l.6,.25c-.64-.27-1.23-.62-1.78-1.04l.51,.39c-.77-.61-1.4-1.41-2.29-1.87-.6-.31-1.27-.43-1.93-.25-.58,.16-1.21,.61-1.49,1.15-.31,.58-.46,1.28-.25,1.93,.19,.6,.57,1.2,1.15,1.49,.14,.07,.27,.16,.4,.25l-.51-.39c.3,.23,.56,.5,.83,.76,.42,.4,.89,.75,1.36,1.09,.78,.55,1.68,.95,2.58,1.26,.44,.12,.89,.12,1.33,0,.33-.08,.61-.23,.85-.45,.63-.49,.96-1.16,.99-1.96,.01-.33-.03-.67-.13-.98-.18-.56-.41-.87-.77-1.32-.23-.24-.49-.42-.8-.52-.3-.16-.62-.23-.96-.22-.61,0-1.35,.27-1.77,.73s-.76,1.1-.73,1.77l.09,.66c.12,.42,.33,.79,.64,1.1h0Z"/>
    <path class="cls-2" d="M26.46,155.05c3.22,0,3.22-5,0-5s-3.22,5,0,5h0Z"/>
    <g>
      <g class="cls-5">
        <polygon class="cls-2" points="264.87 41.76 253.47 35.56 253.49 26.44 264.88 32.64 264.87 41.76"/>
        <path class="cls-2" d="M229.25,66.86l-11.4-6.2c1.41,.77,2.98,1.35,4.7,1.74,2.7,.62,5.75,.7,9.06,.24,2.68-.38,5.22-1.1,7.58-2.15,2.35-1.05,4.48-2.38,6.33-3.95,1.85-1.57,3.45-3.39,4.75-5.4,1.18-1.83,2.05-3.81,2.59-5.89l11.4,6.2c-.54,2.08-1.41,4.05-2.59,5.89-1.3,2.02-2.9,3.84-4.75,5.4-1.85,1.57-3.99,2.9-6.33,3.95-2.36,1.06-4.9,1.78-7.58,2.15-3.32,.47-6.37,.38-9.06-.24-1.72-.39-3.29-.98-4.7-1.74Z"/>
        <polygon class="cls-1" points="252.05 53.16 240.65 46.96 252.87 45.25 264.27 51.45 252.05 53.16"/>
        <polygon class="cls-2" points="251.47 52.29 240.08 46.09 254.02 44.13 265.42 50.33 251.47 52.29"/>
        <polygon class="cls-2" points="251.36 52.6 239.96 46.4 240.08 46.09 251.47 52.29 251.36 52.6"/>
        <path class="cls-1" d="M237.43,50.55c1.53-.98,2.61-2.18,3.22-3.58l11.4,6.2c-.6,1.4-1.69,2.61-3.22,3.58-3.8-2.07-7.6-4.13-11.4-6.2Z"/>
        <path class="cls-1" d="M231.64,52.55c2.25-.32,4.2-.99,5.79-2.01,3.8,2.07,7.6,4.13,11.4,6.2-1.6,1.02-3.54,1.69-5.79,2.01-3.8-2.07-7.6-4.13-11.4-6.2Z"/>
        <polygon class="cls-2" points="233.36 46.19 221.96 39.99 253.47 35.56 264.87 41.76 233.36 46.19"/>
        <polygon class="cls-1" points="252.86 35.76 241.47 29.56 241.47 28.13 252.87 34.33 252.86 35.76"/>
        <polygon class="cls-2" points="251.98 34.93 240.58 28.73 240.58 28.25 251.98 34.45 251.98 34.93"/>
        <path class="cls-1" d="M225.86,51.79c1.53,.83,3.47,1.09,5.78,.76,3.8,2.07,7.6,4.13,11.4,6.2-2.31,.33-4.25,.07-5.78-.76-3.42-1.86-7.98-4.34-11.4-6.2Z"/>
        <path class="cls-2" d="M237.73,57.11l-11.4-6.2c1.39,.76,3.17,.99,5.31,.69s3.94-.93,5.43-1.87c1.44-.91,2.41-2.03,2.9-3.33l11.4,6.2c-.49,1.3-1.46,2.42-2.9,3.33-1.48,.94-3.3,1.57-5.43,1.87s-3.92,.07-5.31-.69Z"/>
        <path class="cls-2" d="M237.25,57.99l-11.4-6.2c-.5-.27-.97-.61-1.38-1.01l11.4,6.2c.42,.4,.88,.74,1.38,1.01Z"/>
        <path class="cls-2" d="M245.17,10.8l11.4,6.2c.84,.46,1.62,.98,2.35,1.57,1.9,1.54,3.39,3.52,4.42,5.89,1.04,2.37,1.55,5.12,1.55,8.18l-11.4-6.2c0-3.06-.51-5.81-1.55-8.18-1.03-2.37-2.51-4.35-4.42-5.89-.72-.59-1.51-1.11-2.35-1.57Z"/>
        <path class="cls-1" d="M237.55,19.72l11.4,6.2c.49,.27,.95,.6,1.36,.98,1.71,1.61,2.57,4.11,2.56,7.43l-11.4-6.2c0-3.32-.85-5.82-2.56-7.43-.41-.39-.86-.71-1.36-.98Z"/>
        <path class="cls-2" d="M237.07,20.6l11.4,6.2c.44,.24,.84,.53,1.21,.87,1.53,1.44,2.31,3.73,2.3,6.78l-11.4-6.2c0-3.05-.77-5.34-2.3-6.78-.36-.34-.77-.63-1.21-.87Z"/>
        <path class="cls-2" d="M235.87,56.98l-11.4-6.2c-1.68-1.61-2.52-4.11-2.52-7.43l11.4,6.2c0,3.32,.84,5.82,2.52,7.43Z"/>
        <polygon class="cls-2" points="233.35 49.55 221.96 43.35 221.96 39.99 233.36 46.19 233.35 49.55"/>
        <polygon class="cls-1" points="233.38 38.5 221.98 32.3 241.47 29.56 252.86 35.76 233.38 38.5"/>
        <polygon class="cls-2" points="234.27 37.42 222.87 31.22 240.58 28.73 251.98 34.93 234.27 37.42"/>
        <polygon class="cls-2" points="233.38 38.5 221.98 32.3 221.98 30.77 233.38 36.97 233.38 38.5"/>
        <path class="cls-2" d="M237.55,19.72l11.4,6.2c-1.55-.84-3.51-1.11-5.85-.78-3.01,.42-5.42,1.69-7.13,3.78-1.72,2.09-2.59,4.8-2.59,8.06l-11.4-6.2c0-3.26,.88-5.97,2.59-8.06,1.71-2.08,4.11-3.35,7.13-3.78,2.33-.33,4.29-.07,5.85,.78Z"/>
        <path class="cls-2" d="M252.87,34.33v1.44s-19.49,2.74-19.49,2.74v-1.53c0-3.26,.88-5.97,2.6-8.06,1.71-2.08,4.11-3.35,7.13-3.78s5.5,.16,7.2,1.76c1.71,1.61,2.57,4.11,2.56,7.43Zm-.89,.6v-.48c0-3.05-.77-5.34-2.3-6.78-1.53-1.44-3.75-1.97-6.58-1.57s-4.96,1.54-6.5,3.41c-1.54,1.88-2.32,4.35-2.33,7.34v.57s17.71-2.49,17.71-2.49"/>
        <polygon class="cls-1" points="221.07 51.28 209.68 45.08 209.7 32.5 221.1 38.7 221.07 51.28"/>
        <polygon class="cls-2" points="220.18 51.4 208.78 45.2 208.8 32.62 220.2 38.82 220.18 51.4"/>
        <path class="cls-1" d="M229.25,66.86l-11.4-6.2c-.79-.43-1.54-.92-2.22-1.47-1.9-1.5-3.38-3.48-4.41-5.88-1.04-2.4-1.55-5.18-1.55-8.24l11.4,6.2c0,3.06,.51,5.83,1.55,8.24,1.03,2.4,2.51,4.38,4.41,5.88,.69,.55,1.43,1.03,2.22,1.47Z"/>
        <path class="cls-2" d="M228.74,67.72l-11.4-6.2c-.82-.45-1.59-.95-2.3-1.51-1.99-1.59-3.56-3.68-4.64-6.19-1.08-2.53-1.63-5.42-1.63-8.61l11.4,6.2c0,3.19,.54,6.09,1.63,8.61,1.08,2.52,2.65,4.61,4.64,6.19,.71,.56,1.48,1.06,2.3,1.51Z"/>
        <path class="cls-1" d="M264.87,41.76l-31.5,4.43v3.36c-.01,3.32,.83,5.82,2.51,7.43,1.68,1.61,4.09,2.21,7.16,1.78,2.25-.32,4.2-.99,5.79-2.01,1.53-.98,2.61-2.18,3.22-3.58l12.22-1.72c-.54,2.08-1.41,4.05-2.59,5.89-1.3,2.02-2.9,3.84-4.75,5.4-1.85,1.57-3.99,2.9-6.33,3.95-2.36,1.06-4.9,1.78-7.58,2.15-3.32,.47-6.37,.38-9.06-.24-2.69-.62-5.02-1.7-6.92-3.21-1.9-1.5-3.38-3.48-4.41-5.88-1.04-2.4-1.55-5.18-1.55-8.24l.02-12.58c0-3.12,.53-6.04,1.58-8.67,1.04-2.64,2.53-5.02,4.43-7.09,1.91-2.07,4.24-3.81,6.94-5.16,2.7-1.35,5.75-2.27,9.07-2.74s6.26-.37,8.93,.26c2.67,.62,4.98,1.72,6.87,3.26,1.9,1.54,3.39,3.52,4.42,5.89,1.04,2.37,1.55,5.12,1.55,8.18l-.02,9.12Zm-31.49-4.79v1.53s19.49-2.74,19.49-2.74v-1.44c0-3.32-.85-5.82-2.56-7.43-1.7-1.6-4.13-2.19-7.2-1.76s-5.42,1.69-7.13,3.78c-1.72,2.09-2.59,4.8-2.59,8.06"/>
        <path class="cls-1" d="M245.17,10.8l11.4,6.2c-1.36-.74-2.88-1.31-4.53-1.69-2.67-.63-5.68-.71-8.93-.26s-6.37,1.39-9.07,2.74c-2.69,1.35-5.03,3.08-6.94,5.16-1.9,2.07-3.4,4.45-4.43,7.09-1.05,2.63-1.57,5.55-1.58,8.67l-11.4-6.2c0-3.12,.53-6.04,1.58-8.67,1.04-2.64,2.53-5.02,4.43-7.09,1.91-2.07,4.24-3.81,6.94-5.16,2.7-1.35,5.75-2.27,9.07-2.74s6.26-.37,8.93,.26c1.65,.38,3.16,.95,4.53,1.69Z"/>
        <path class="cls-2" d="M245.67,9.93l11.4,6.2c-1.43-.78-3-1.37-4.72-1.77-2.77-.65-5.87-.74-9.23-.27s-6.56,1.43-9.35,2.83c-2.81,1.41-5.24,3.22-7.24,5.38-2,2.18-3.57,4.69-4.67,7.45-1.09,2.76-1.65,5.82-1.66,9.08l-11.4-6.2c0-3.26,.56-6.31,1.66-9.08,1.09-2.76,2.67-5.27,4.67-7.45,2-2.17,4.44-3.98,7.24-5.38,2.79-1.39,5.94-2.35,9.35-2.83s6.46-.38,9.23,.27c1.72,.4,3.3,1,4.72,1.77Z"/>
        <path class="cls-2" d="M265.75,42.59l-31.5,4.43v2.4c-.01,3.06,.75,5.34,2.26,6.79,1.5,1.45,3.7,1.98,6.53,1.58,2.12-.3,3.94-.93,5.43-1.87,1.44-.91,2.41-2.03,2.9-3.33l.11-.31,13.95-1.96-.14,.62c-.55,2.44-1.52,4.75-2.9,6.87-1.36,2.12-3.03,4.02-4.97,5.66-1.93,1.64-4.15,3.02-6.58,4.11-2.44,1.09-5.06,1.84-7.82,2.22-3.41,.48-6.56,.39-9.35-.25-2.79-.64-5.23-1.77-7.22-3.34-1.99-1.59-3.56-3.68-4.64-6.19-1.08-2.53-1.63-5.42-1.63-8.61l.02-12.58c0-3.26,.56-6.31,1.66-9.08,1.09-2.76,2.67-5.27,4.67-7.45,2-2.17,4.44-3.98,7.24-5.38,2.79-1.39,5.94-2.35,9.35-2.83s6.46-.38,9.23,.27c2.77,.65,5.18,1.8,7.17,3.4,1.99,1.62,3.56,3.7,4.64,6.19,1.08,2.48,1.62,5.37,1.62,8.56l-.02,10.08Zm-29.88,14.38c-1.68-1.61-2.52-4.11-2.52-7.43v-3.36s31.51-4.43,31.51-4.43l.02-9.12c0-3.06-.51-5.81-1.55-8.18-1.03-2.37-2.51-4.35-4.42-5.89-1.9-1.54-4.21-2.64-6.87-3.26-2.67-.63-5.68-.71-8.93-.26s-6.37,1.39-9.07,2.74c-2.69,1.35-5.03,3.08-6.94,5.16-1.9,2.07-3.4,4.45-4.43,7.09-1.05,2.63-1.57,5.55-1.58,8.67l-.02,12.58c0,3.06,.51,5.83,1.55,8.24,1.03,2.4,2.51,4.38,4.41,5.88,1.9,1.51,4.23,2.59,6.92,3.21,2.7,.62,5.75,.7,9.06,.24,2.68-.38,5.22-1.1,7.58-2.15,2.35-1.05,4.48-2.38,6.33-3.95,1.85-1.57,3.45-3.39,4.75-5.4,1.18-1.83,2.05-3.81,2.59-5.89l-12.22,1.72c-.6,1.4-1.69,2.61-3.22,3.58-1.6,1.02-3.54,1.69-5.79,2.01-3.08,.43-5.49-.16-7.16-1.78"/>
      </g>
      <g class="cls-5">
        <polygon class="cls-2" points="199.59 73.99 188.19 67.79 202.3 65.8 213.69 72 199.59 73.99"/>
        <polygon class="cls-2" points="213.69 72 202.3 65.8 188.7 41.21 200.1 47.4 213.69 72"/>
        <polygon class="cls-2" points="200.1 47.4 188.7 41.21 202.12 13.97 213.52 20.17 200.1 47.4"/>
        <polygon class="cls-1" points="199.59 73.99 188.19 67.79 177.9 48.49 189.3 54.69 199.59 73.99"/>
        <polygon class="cls-2" points="199.05 75.02 187.65 68.82 177.37 49.52 188.77 55.72 199.05 75.02"/>
        <polygon class="cls-2" points="182.05 76.45 170.66 70.25 170.69 49.5 182.09 55.7 182.05 76.45"/>
        <polygon class="cls-2" points="182.09 55.7 170.69 49.5 177.9 48.49 189.3 54.69 182.09 55.7"/>
        <polygon class="cls-2" points="169.6 78.2 158.2 72 170.66 70.25 182.05 76.45 169.6 78.2"/>
        <polygon class="cls-1" points="199.67 22.11 188.28 15.91 202.12 13.97 213.52 20.17 199.67 22.11"/>
        <polygon class="cls-1" points="189.41 43.53 178.01 37.33 188.28 15.91 199.67 22.11 189.41 43.53"/>
        <polygon class="cls-2" points="188.88 42.65 177.48 36.45 187.76 15.03 199.16 21.23 188.88 42.65"/>
        <polygon class="cls-2" points="199.16 21.23 187.76 15.03 203.65 12.79 215.05 18.99 199.16 21.23"/>
        <polygon class="cls-1" points="182.11 44.56 170.71 38.36 178.01 37.33 189.41 43.53 182.11 44.56"/>
        <polygon class="cls-2" points="183 43.47 171.61 37.27 177.48 36.45 188.88 42.65 183 43.47"/>
        <polygon class="cls-2" points="182.11 44.56 170.71 38.36 170.78 1.08 182.18 7.28 182.11 44.56"/>
        <polygon class="cls-1" points="182.18 7.28 182.11 44.56 189.41 43.53 199.67 22.11 213.52 20.17 200.1 47.4 213.69 72 199.59 73.99 189.3 54.69 182.09 55.7 182.05 76.45 169.6 78.2 169.72 9.03 182.18 7.28"/>
        <polygon class="cls-1" points="169.72 9.03 158.33 2.84 170.78 1.08 182.18 7.28 169.72 9.03"/>
        <path class="cls-2" d="M201.13,47.27l14.08,25.48-16.16,2.27-10.28-19.3-5.79,.81-.04,20.75-14.24,2,.13-71.09,14.24-2-.07,37.27,5.88-.83,10.27-21.42,15.89-2.23-13.92,28.28Zm-11.83,7.42l10.29,19.3,14.11-1.98-13.59-24.6,13.42-27.24-13.84,1.95-10.27,21.42-7.3,1.03,.07-37.27-12.46,1.75-.13,69.17,12.46-1.75,.04-20.75,7.21-1.01"/>
        <polygon class="cls-1" points="169.6 78.2 158.2 72 158.33 2.84 169.72 9.03 169.6 78.2"/>
        <polygon class="cls-2" points="168.83 8.2 157.43 2 171.67 0 183.07 6.2 168.83 8.2"/>
        <polygon class="cls-2" points="168.7 79.29 157.3 73.09 157.43 2 168.83 8.2 168.7 79.29"/>
      </g>
      <g class="cls-5">
        <polygon class="cls-2" points="159.36 79.64 147.96 73.44 147.98 61.34 159.38 67.54 159.36 79.64"/>
        <polygon class="cls-1" points="145.59 69.48 134.19 63.28 147.98 61.34 159.38 67.54 145.59 69.48"/>
        <polygon class="cls-2" points="146.48 68.39 135.08 62.19 148.87 60.25 160.27 66.45 146.48 68.39"/>
        <polygon class="cls-2" points="116.64 85.64 105.24 79.44 147.96 73.44 159.36 79.64 116.64 85.64"/>
        <polygon class="cls-2" points="145.59 69.48 134.19 63.28 134.26 23.5 145.66 29.7 145.59 69.48"/>
        <polygon class="cls-1" points="134.01 71.1 122.61 64.9 122.67 37.14 134.06 43.34 134.01 71.1"/>
        <polygon class="cls-2" points="133.12 70.27 121.73 64.07 121.78 38.22 133.17 44.42 133.12 70.27"/>
        <polygon class="cls-1" points="116.66 73.54 105.26 67.34 122.61 64.9 134.01 71.1 116.66 73.54"/>
        <polygon class="cls-1" points="116.64 85.64 105.24 79.44 105.26 67.34 116.66 73.54 116.64 85.64"/>
        <polygon class="cls-2" points="115.74 86.73 104.34 80.53 104.37 66.51 115.77 72.71 115.74 86.73"/>
        <polygon class="cls-2" points="115.77 72.71 104.37 66.51 121.73 64.07 133.12 70.27 115.77 72.71"/>
        <polygon class="cls-2" points="118.93 45.47 107.53 39.27 122.67 37.14 134.06 43.34 118.93 45.47"/>
        <polygon class="cls-1" points="145.59 69.48 159.38 67.54 159.36 79.64 116.64 85.64 116.66 73.54 134.01 71.1 134.06 43.34 118.93 45.47 118.95 33.46 145.66 29.7 145.59 69.48"/>
        <polygon class="cls-1" points="118.95 33.46 107.56 27.26 134.26 23.5 145.66 29.7 118.95 33.46"/>
        <polygon class="cls-1" points="118.93 45.47 107.53 39.27 107.56 27.26 118.95 33.46 118.93 45.47"/>
        <polygon class="cls-2" points="118.04 46.55 106.64 40.35 106.67 26.42 118.07 32.62 118.04 46.55"/>
        <polygon class="cls-2" points="118.07 32.62 106.67 26.42 135.15 22.42 146.55 28.62 118.07 32.62"/>
        <path class="cls-2" d="M146.48,68.39l13.79-1.94-.03,14.02-44.51,6.25,.03-14.02,17.36-2.44,.05-25.84-15.13,2.13,.03-13.93,28.49-4-.07,39.77Zm12.88,11.25l.02-12.1-13.79,1.94,.07-39.77-26.71,3.75-.02,12.01,15.13-2.13-.05,27.76-17.35,2.44-.02,12.1,42.72-6"/>
      </g>
      <g class="cls-5">
        <polygon class="cls-2" points="95.54 88.61 84.14 82.41 94.2 81 105.6 87.2 95.54 88.61"/>
        <polygon class="cls-2" points="105.6 87.2 94.2 81 94.28 41.13 105.67 47.33 105.6 87.2"/>
        <polygon class="cls-2" points="77.83 91.1 66.43 84.9 76.49 83.49 87.89 89.69 77.83 91.1"/>
        <polygon class="cls-2" points="94.65 89.69 83.25 83.49 83.32 44.3 94.72 50.5 94.65 89.69"/>
        <path class="cls-1" d="M84.21,44.18c0-1.16-.12-2.08-.34-2.8,3.8,2.07,7.6,4.13,11.4,6.2,.22,.72,.35,1.64,.34,2.8-3.42-1.86-7.98-4.34-11.4-6.2Z"/>
        <path class="cls-1" d="M83.84,41.27c.97,.53,1.94,1.06,2.91,1.58,1.78,.97,3.57,1.94,5.35,2.91,1.04,.57,2.09,1.14,3.13,1.7,.01,.04,.02,.07,.03,.11-3.8-2.07-7.6-4.13-11.4-6.2-.01-.04-.02-.07-.03-.11Z"/>
        <path class="cls-2" d="M89.75,30.09l11.4,6.2c.78,.43,1.48,1.03,2.09,1.83,1.62,2.07,2.44,5.17,2.43,9.21l-11.4-6.2c0-4.04-.81-7.14-2.43-9.21-.61-.79-1.31-1.4-2.09-1.83Z"/>
        <path class="cls-1" d="M83.84,41.27c-.34-1.04-.88-1.66-1.5-2l11.4,6.2c.62,.34,1.16,.95,1.5,2-2.83-1.54-5.66-3.08-8.49-4.62-.48-.26-.97-.53-1.45-.79-.06-.03-.13-.07-.19-.1-.11-.06-.26-.14-.38-.21s-.26-.14-.37-.2-.25-.13-.35-.19c-.05-.03-.13-.05-.17-.09Z"/>
        <path class="cls-2" d="M81.86,40.16l11.4,6.2c.99,.54,1.47,1.91,1.47,4.15l-11.4-6.2c0-2.23-.48-3.61-1.47-4.15Z"/>
        <path class="cls-1" d="M85.23,29.44c1.76-.25,3.26-.03,4.53,.66l11.4,6.2c-1.27-.69-2.77-.91-4.53-.66-3.42-1.86-7.98-4.34-11.4-6.2Z"/>
        <polygon class="cls-2" points="87.89 89.69 76.49 83.49 76.56 45.25 87.96 51.45 87.89 89.69"/>
        <polygon class="cls-1" points="88.75 45.39 77.35 39.19 77.38 38.73 88.77 44.93 88.75 45.39"/>
        <polygon class="cls-1" points="87.62 45.55 76.22 39.35 77.35 39.19 88.75 45.39 87.62 45.55"/>
        <path class="cls-2" d="M82.34,39.28l11.4,6.2c-.66-.36-1.42-.4-2.12-.3-1.35,.19-2.32,.88-2.88,2.05-.52,1.08-.77,2.47-.78,4.23l-11.4-6.2c0-1.76,.25-3.15,.78-4.23,.55-1.17,1.53-1.86,2.88-2.05,.7-.1,1.46-.06,2.12,.3Z"/>
        <polygon class="cls-2" points="87.62 45.55 76.22 39.35 76.14 38.99 87.54 45.18 87.62 45.55"/>
        <path class="cls-1" d="M88.77,44.93l-11.4-6.2c.12-2.57,.88-4.7,2.28-6.34,1.39-1.64,3.26-2.63,5.57-2.95l11.4,6.2c-2.31,.32-4.18,1.31-5.57,2.95-1.4,1.64-2.16,3.77-2.28,6.34Z"/>
        <polygon class="cls-2" points="60.12 93.59 48.72 87.39 58.78 85.97 70.18 92.17 60.12 93.59"/>
        <path class="cls-2" d="M90.25,29.23l11.4,6.2c-1.42-.77-3.1-1.03-5.02-.76-2.55,.36-4.62,1.47-6.19,3.31-1.28,1.49-2.08,3.33-2.4,5.49l-11.4-6.2c.32-2.15,1.13-4,2.4-5.49,1.57-1.84,3.64-2.95,6.19-3.31,1.92-.27,3.6-.02,5.02,.76Z"/>
        <polygon class="cls-1" points="77.83 91.1 66.43 84.9 66.5 46.67 77.9 52.87 77.83 91.1"/>
        <polygon class="cls-2" points="76.94 92.18 65.54 85.98 65.61 46.79 77.01 52.99 76.94 92.18"/>
        <path class="cls-1" d="M66.5,46.67c0-.92-.08-1.69-.22-2.33,3.8,2.07,7.6,4.13,11.4,6.2,.14,.64,.22,1.41,.22,2.33-3.42-1.86-7.98-4.34-11.4-6.2Z"/>
        <path class="cls-1" d="M66.12,43.76c3.8,2.07,7.6,4.13,11.4,6.2,.06,.18,.11,.37,.16,.58-3.8-2.07-7.6-4.13-11.4-6.2-.05-.21-.1-.4-.16-.58Z"/>
        <path class="cls-2" d="M71.99,32.62l11.4,6.2c.37,.2,.71,.44,1.04,.71,1.5,1.26,2.54,3.16,3.1,5.66l-11.4-6.2c-.56-2.5-1.61-4.4-3.1-5.66-.33-.28-.68-.51-1.04-.71Z"/>
        <path class="cls-1" d="M66.12,43.76c-.34-1.04-.88-1.66-1.5-2l11.4,6.2c.62,.34,1.16,.95,1.5,2-2.83-1.54-5.66-3.08-8.49-4.62-.48-.26-.97-.53-1.45-.79-.06-.03-.13-.07-.19-.1-.19-.1-.38-.2-.56-.31-.11-.06-.25-.14-.36-.2-.1-.06-.27-.1-.34-.18Z"/>
        <path class="cls-2" d="M64.14,42.65l11.4,6.2c.99,.54,1.47,1.91,1.47,4.15l-11.4-6.2c0-2.23-.48-3.61-1.47-4.15Z"/>
        <polygon class="cls-2" points="70.18 92.17 58.78 85.97 58.85 47.74 70.25 53.94 70.18 92.17"/>
        <polygon class="cls-1" points="71.04 47.88 59.64 41.68 59.67 41.21 71.06 47.41 71.04 47.88"/>
        <path class="cls-2" d="M64.63,41.77l11.4,6.2c-.66-.36-1.42-.4-2.12-.3-1.35,.19-2.32,.88-2.89,2.05-.51,1.08-.77,2.47-.77,4.23l-11.4-6.2c0-1.76,.25-3.15,.77-4.23,.56-1.17,1.53-1.86,2.89-2.05,.7-.1,1.46-.06,2.12,.3Z"/>
        <polygon class="cls-1" points="69.27 48.12 57.88 41.92 59.64 41.68 71.04 47.88 69.27 48.12"/>
        <path class="cls-1" d="M67.51,31.93c1.71-.24,3.21,0,4.49,.69l11.4,6.2c-1.28-.7-2.78-.93-4.49-.69-2.3,.32-4.17,1.31-5.56,2.95-1.4,1.64-2.16,3.77-2.28,6.34l-11.4-6.2c.12-2.57,.88-4.7,2.28-6.34,1.39-1.64,3.26-2.63,5.56-2.95Z"/>
        <path class="cls-2" d="M72.45,31.73l11.4,6.2c-1.41-.77-3.07-1.02-4.94-.76-2.54,.36-4.62,1.47-6.18,3.31-1.48,1.74-2.33,3.94-2.53,6.56l-11.4-6.2c.2-2.62,1.04-4.82,2.53-6.56,1.56-1.84,3.64-2.95,6.18-3.31,1.87-.26,3.53-.01,4.94,.76Z"/>
        <polygon class="cls-2" points="69.27 48.12 57.88 41.92 57.89 34.24 69.29 40.44 69.27 48.12"/>
        <polygon class="cls-1" points="60.21 41.71 48.82 35.51 57.89 34.24 69.29 40.44 60.21 41.71"/>
        <path class="cls-1" d="M96.62,35.64c2.84-.4,5.01,.41,6.62,2.48,1.62,2.07,2.44,5.17,2.43,9.21l-.07,39.87-10.06,1.41,.07-38.23c0-4.76-2.17-5.46-3.99-5.2-1.35,.19-2.32,.88-2.88,2.05-.52,1.08-.77,2.47-.78,4.23l-.07,38.23-10.06,1.41,.07-38.23c0-4.76-2.17-5.46-3.99-5.2-1.35,.19-2.32,.88-2.89,2.05-.51,1.08-.77,2.47-.77,4.23l-.07,38.23-10.06,1.41,.1-51.88,9.08-1.28v7.69s1.75-.25,1.75-.25l.02-.46c.12-2.57,.88-4.7,2.28-6.34,1.39-1.64,3.26-2.63,5.56-2.95s4.05,.17,5.53,1.4c1.5,1.26,2.54,3.16,3.1,5.66l.08,.36,1.13-.16,.02-.46c.12-2.57,.88-4.7,2.28-6.34,1.39-1.64,3.26-2.63,5.57-2.95Z"/>
        <path class="cls-2" d="M73.9,47.66c-1.17,.16-2.05,.7-2.63,1.6l.76,.41c.41-.59,1.03-.93,1.87-1.05,1.96-.28,2.97,.96,3.09,3.75l.9,.49c0-4.76-2.17-5.46-3.99-5.2Zm30.05-10.23c-1.77-2.27-4.24-3.19-7.33-2.76-2.55,.36-4.62,1.47-6.19,3.31-1.28,1.49-2.08,3.33-2.4,5.49-.65-2.03-1.66-3.61-3-4.74-1.64-1.39-3.7-1.91-6.12-1.57-2.54,.36-4.62,1.47-6.18,3.31-1.48,1.74-2.33,3.94-2.53,6.56v-7.68s-10.87,1.53-10.87,1.53l-.1,53.79,11.84-1.66v-5.58s-.88-.48-.88-.48v5.23s-10.07,1.41-10.07,1.41l.1-51.88,9.08-1.28v7.69s1.75-.25,1.75-.25l.02-.46c.12-2.57,.88-4.7,2.28-6.34,1.39-1.64,3.26-2.63,5.56-2.95,2.19-.31,4.05,.17,5.53,1.4,1.5,1.26,2.54,3.16,3.1,5.66l.08,.36,1.13-.16,.02-.46c.12-2.57,.88-4.7,2.28-6.34,1.39-1.64,3.26-2.63,5.57-2.95,2.84-.4,5.01,.41,6.62,2.48,1.62,2.07,2.44,5.17,2.43,9.21l-.07,39.87-10.06,1.41,.07-38.23c0-4.76-2.17-5.46-3.99-5.2-1.35,.19-2.32,.88-2.88,2.05-.52,1.08-.77,2.47-.78,4.23l-.07,38.23-10.06,1.41-.89-.48v1.57s11.84-1.66,11.84-1.66l.07-39.19c0-1.58,.22-2.84,.66-3.75,.39-.82,1.08-1.3,2.1-1.44,2.1-.29,3.11,1.14,3.11,4.37l-.07,39.19,11.84-1.66,.08-40.83c0-4.25-.87-7.54-2.61-9.77Z"/>
        <path class="cls-1" d="M94.71,49.89c0,.2,.01,.4,.01,.62l-.07,37.62,.89,.48,.07-38.23-.9-.49Z"/>
        <polygon class="cls-1" points="60.12 93.59 48.72 87.39 48.82 35.51 60.21 41.71 60.12 93.59"/>
        <polygon class="cls-2" points="59.33 40.88 47.93 34.68 58.79 33.15 70.19 39.35 59.33 40.88"/>
        <polygon class="cls-2" points="59.23 94.67 47.83 88.47 47.93 34.68 59.33 40.88 59.23 94.67"/>
      </g>
      <g class="cls-5">
        <polygon class="cls-2" points="137.67 22.67 126.27 16.47 128.85 16.11 140.24 22.31 137.67 22.67"/>
        <path class="cls-2" d="M132.73,4.12l11.4,6.2c.28,.15,.53,.33,.77,.53,1.13,.97,1.68,2.39,1.67,4.31s-.56,3.49-1.69,4.78c-1.13,1.28-2.69,2.08-4.64,2.36l-11.4-6.2c1.95-.27,3.51-1.07,4.64-2.36,1.13-1.29,1.69-2.86,1.69-4.78s-.55-3.34-1.67-4.31c-.24-.21-.5-.38-.77-.53Z"/>
        <path class="cls-2" d="M133.9,22.15l-11.4-6.2c1.01,.55,2.28,.73,3.76,.52l11.4,6.2c-1.49,.21-2.75,.03-3.76-.52Z"/>
        <polygon class="cls-1" points="137.69 10.17 126.29 3.98 128.96 3.6 140.36 9.8 137.69 10.17"/>
        <polygon class="cls-2" points="137.69 9.22 126.29 3.02 128.96 2.64 140.36 8.84 137.69 9.22"/>
        <path class="cls-1" d="M132.73,4.12l11.4,6.2c-1.02-.56-2.28-.73-3.77-.52l-11.4-6.2c1.49-.21,2.75-.03,3.77,.52Z"/>
        <path class="cls-2" d="M133.19,3.24l11.4,6.2c-1.16-.63-2.58-.83-4.23-.6l-11.4-6.2c1.66-.23,3.08-.03,4.23,.6Z"/>
        <path class="cls-1" d="M122.51,15.95c-.28-.15-.54-.33-.78-.54l11.4,6.2c.24,.21,.5,.39,.78,.54-3.42-1.86-7.98-4.34-11.4-6.2Z"/>
        <path class="cls-2" d="M133.42,23.03l-11.4-6.2c-.32-.18-.63-.39-.91-.63l11.4,6.2c.28,.24,.59,.45,.91,.63Z"/>
        <path class="cls-1" d="M121.72,15.4c-1.13-.97-1.68-2.38-1.67-4.31,3.8,2.07,7.6,4.13,11.4,6.2,0,1.93,.55,3.34,1.67,4.31-3.42-1.86-8.2-3.98-11.4-6.2Z"/>
        <path class="cls-1" d="M121.74,6.32c1.12-1.29,2.66-2.08,4.55-2.34l11.4,6.2c-1.89,.27-3.43,1.05-4.55,2.34-3.8-2.07-7.6-4.13-11.4-6.2Z"/>
        <path class="cls-1" d="M133.12,21.6c-1.13-.97-1.68-2.38-1.67-4.31s.56-3.49,1.69-4.78c1.12-1.29,2.66-2.08,4.55-2.34l2.67-.37c1.89-.27,3.42,.09,4.55,1.06,1.13,.97,1.68,2.39,1.67,4.31s-.56,3.49-1.69,4.78c-1.13,1.28-2.69,2.08-4.64,2.36l-2.58,.36c-1.9,.27-3.43-.1-4.55-1.06Z"/>
        <path class="cls-1" d="M120.05,11.09c0-1.93,.56-3.49,1.69-4.78,3.8,2.07,7.6,4.13,11.4,6.2-1.13,1.28-1.69,2.85-1.69,4.78-3.8-2.07-7.6-4.13-11.4-6.2Z"/>
        <path class="cls-2" d="M132.51,22.4l-11.4-6.2c-1.3-1.12-1.96-2.79-1.95-4.98s.66-4.03,1.97-5.52c1.3-1.48,3.04-2.38,5.16-2.68l11.4,6.2c-2.12,.3-3.86,1.2-5.16,2.68-1.31,1.49-1.97,3.35-1.97,5.52s.65,3.86,1.95,4.98Z"/>
        <path class="cls-2" d="M132.51,22.4c-1.3-1.12-1.96-2.79-1.95-4.98s.66-4.03,1.97-5.52c1.3-1.48,3.04-2.38,5.16-2.68l2.67-.37c2.12-.3,3.85,.12,5.15,1.23,1.3,1.12,1.96,2.8,1.96,4.97s-.67,4.04-1.98,5.53c-1.29,1.48-3.06,2.38-5.24,2.69l-2.58,.36c-2.13,.3-3.86-.11-5.16-1.23Zm.63-9.88c-1.13,1.28-1.69,2.85-1.69,4.78s.55,3.34,1.67,4.31c1.12,.97,2.65,1.33,4.55,1.06l2.58-.36c1.95-.27,3.51-1.07,4.64-2.36,1.13-1.29,1.69-2.86,1.69-4.78s-.55-3.34-1.67-4.31c-1.13-.97-2.66-1.32-4.55-1.06l-2.67,.37c-1.89,.27-3.43,1.05-4.55,2.34"/>
      </g>
    </g>
    <path class="cls-3" d="M128.41,4.23c.61,.58,1.4,.84,2.15,1.18,.88,.39,1.75,.81,2.62,1.23,1.73,.85,3.46,1.71,5.19,2.56,.62,.3,1.5,.08,2.05-.26,.4-.25,.87-.85,.25-1.16-1.67-.83-3.35-1.66-5.02-2.48-.81-.4-1.62-.79-2.44-1.16-.68-.31-1.55-.54-2.1-1.06-.48-.45-1.38-.28-1.92-.04-.33,.14-1.25,.73-.77,1.19h0Z"/>
    <path class="cls-3" d="M209.17,46.05c.84,.62,1.71,1.08,2.7,1.4,.83,.27,1.73,.37,2.45,.89s1.09,1.31,1.93,1.63c.41,.16,.74,.22,1.08,.52,.2,.17,.68,.5,.66,.81-.03,.64,.77,.72,1.26,.65,.45-.06,1.61-.37,1.64-1,.04-.96-.84-1.72-1.63-2.14-.35-.19-.78-.21-1.09-.45-.35-.28-.6-.67-.94-.97-.8-.71-1.75-1.04-2.78-1.3-.93-.24-1.82-.6-2.6-1.18-.54-.4-1.33-.31-1.92-.04-.26,.12-1.32,.78-.77,1.19h0Z"/>
    <path class="cls-2" d="M60.03,167.58c.07,.02,.13,.04,.2,.06l-.6-.25s.07,.04,.11,.06l-.51-.39s.06,.05,.09,.09l-.39-.51c.14,.2,.23,.46,.32,.69l-.25-.6c.15,.35,.26,.73,.45,1.06,.32,.55,.69,.8,1.18,1.17l-.51-.39c.2,.16,.36,.35,.51,.55l-.39-.51c.18,.23,.35,.48,.55,.7,.18,.21,.46,.41,.66,.54,.5,.31,1.15,.47,1.74,.41,.34,.01,.67-.06,.96-.22,.31-.1,.58-.27,.8-.52,.24-.23,.42-.49,.52-.8,.16-.3,.23-.62,.22-.96l-.09-.66c-.12-.42-.33-.79-.64-1.1l-.51-.39c-.39-.23-.81-.34-1.26-.34-.09,0-.18,.02-.27,.01l.66,.09s-.08-.02-.13-.03l.6,.25s-.07-.03-.1-.06l.51,.39c-.07-.06-.13-.13-.19-.2l.39,.51c-.24-.31-.46-.63-.72-.92s-.58-.5-.89-.74l.51,.39c-.05-.04-.1-.08-.14-.14l.39,.51c-.04-.06-.07-.11-.1-.18l.25,.6c-.2-.48-.4-.96-.61-1.44-.03-.06-.05-.12-.09-.17-.07-.1-.14-.19-.22-.29-.07-.09-.14-.18-.21-.27-.02-.03-.05-.05-.08-.07-.42-.37-.69-.5-1.21-.7-.06-.02-.13-.05-.2-.06-.33-.1-.66-.12-1-.04-.33,.02-.64,.11-.93,.3-.29,.16-.53,.37-.7,.64-.22,.24-.37,.52-.45,.85l-.09,.66c0,.45,.12,.87,.34,1.26,.35,.55,.85,.97,1.49,1.15h0Z"/>
    <line class="cls-4" x1="29.5" y1="154.11" x2="29.5" y2="193"/>
    <line class="cls-4" x1="47.22" y1="151.77" x2="47.22" y2="190.39"/>
    <line class="cls-4" x1="77.44" y1="52.66" x2="77.44" y2="91.05"/>
    <line class="cls-4" x1="95.09" y1="49.96" x2="95.09" y2="88.93"/>
    <path class="cls-4" d="M77.17,52.03v1.33"/>
    <path class="cls-4" d="M94.78,49.44l.18,1.55"/>
    <line class="cls-4" x1="59.72" y1="41.44" x2="59.72" y2="93.9"/>
    <line class="cls-4" x1="11.94" y1="143" x2="11.94" y2="195.45"/>
  </g>
</svg>